<svg xmlns="http://www.w3.org/2000/svg" width="799.9783935546875" height="542.2398071289062" viewBox="-455.62457275390625 -284.75909423828125 799.9783935546875 542.2398071289062"><title>Neo4j Graph Visualization</title><desc>Created using Neo4j (http://www.neo4j.com/)</desc><g class="layer relationships"><g class="relationship" transform="translate(2.4218750817811667 80.10598344508139) rotate(395.0797263942587)"><path class="b-outline" fill="#A5ABB6" stroke="none" d="M 25 0.5 L 26.96442970297643 0.5 L 26.96442970297643 -0.5 L 25 -0.5 Z M 120.38109382651159 0.5 L 122.34552352948802 0.5 L 122.34552352948802 3.5 L 129.34552352948802 0 L 122.34552352948802 -3.5 L 122.34552352948802 -0.5 L 120.38109382651159 -0.5 Z"/><text text-anchor="middle" pointer-events="none" font-size="8px" fill="#000000" x="73.67276176474401" y="3" font-family="Helvetica Neue, Helvetica, Arial, sans-serif">WAS_ATTRIBUTED_TO</text></g><g class="relationship" transform="translate(212.33554537926918 -74.19631193640028) rotate(483.3524811904398)"><path class="b-outline" fill="#A5ABB6" stroke="none" d="M 25 0.5 L 27.62606113017111 0.5 L 27.62606113017111 -0.5 L 25 -0.5 Z M 107.84272830546408 0.5 L 110.46878943563519 0.5 L 110.46878943563519 3.5 L 117.46878943563519 0 L 110.46878943563519 -3.5 L 110.46878943563519 -0.5 L 107.84272830546408 -0.5 Z"/><text text-anchor="middle" pointer-events="none" font-size="8px" fill="#000000" x="67.7343947178176" y="3" transform="rotate(180 67.7343947178176 0)" font-family="Helvetica Neue, Helvetica, Arial, sans-serif">WAS_ATTRIBUTE…</text></g><g class="relationship" transform="translate(-87.24667689107106 172.13844149667645) rotate(260.51384895869353)"><path class="b-outline" fill="#A5ABB6" stroke="none" d="M 25 0.5 L 44.81373512242189 0.5 L 44.81373512242189 -0.5 L 25 -0.5 Z M 136.74706947300783 0.5 L 156.56080459542972 0.5 L 156.56080459542972 3.5 L 163.56080459542972 0 L 156.56080459542972 -3.5 L 156.56080459542972 -0.5 L 136.74706947300783 -0.5 Z"/><text text-anchor="middle" pointer-events="none" font-size="8px" fill="#000000" x="90.78040229771486" y="3" transform="rotate(180 90.78040229771486 0)" font-family="Helvetica Neue, Helvetica, Arial, sans-serif">WAS_DERIVED_FROM</text></g><g class="relationship" transform="translate(2.4218750817811667 80.10598344508139) rotate(494.25463154686184)"><path class="b-outline" fill="#A5ABB6" stroke="none" d="M 25 0.5 L 25.746444547396365 0.5 L 25.746444547396365 -0.5 L 25 -0.5 Z M 95.74644454739637 0.5 L 96.49288909479273 0.5 L 96.49288909479273 3.5 L 103.49288909479273 0 L 96.49288909479273 -3.5 L 96.49288909479273 -0.5 L 95.74644454739637 -0.5 Z"/><text text-anchor="middle" pointer-events="none" font-size="8px" fill="#000000" x="60.746444547396365" y="3" transform="rotate(180 60.746444547396365 0)" font-family="Helvetica Neue, Helvetica, Arial, sans-serif">WAS_ATTRIBU…</text></g><g class="relationship" transform="translate(-215.98562023176066 162.39252778976817) rotate(364.3292001980638)"><path class="b-outline" fill="#A5ABB6" stroke="none" d="M 25 0.5 L 25.978655923687896 0.5 L 25.978655923687896 -0.5 L 25 -0.5 Z M 96.1286574495668 0.5 L 97.1073133732547 0.5 L 97.1073133732547 3.5 L 104.1073133732547 0 L 97.1073133732547 -3.5 L 97.1073133732547 -0.5 L 96.1286574495668 -0.5 Z"/><text text-anchor="middle" pointer-events="none" font-size="8px" fill="#000000" x="61.05365668662735" y="3" font-family="Helvetica Neue, Helvetica, Arial, sans-serif">WAS_GENERA…</text></g><g class="relationship" transform="translate(-296.3970501707673 -38.3702770151833) rotate(452.53794911238845)"><path class="b-outline" fill="#A5ABB6" stroke="none" d="M 25 0.5 L 25.882254645932903 0.5 L 25.882254645932903 -0.5 L 25 -0.5 Z M 106.09892182122587 0.5 L 106.98117646715878 0.5 L 106.98117646715878 3.5 L 113.98117646715878 0 L 106.98117646715878 -3.5 L 106.98117646715878 -0.5 L 106.09892182122587 -0.5 Z"/><text text-anchor="middle" pointer-events="none" font-size="8px" fill="#000000" x="65.99058823357939" y="3" transform="rotate(180 65.99058823357939 0)" font-family="Helvetica Neue, Helvetica, Arial, sans-serif">WAS_ATTRIBUTE…</text></g><g class="relationship" transform="translate(53.89417002826404 -96.40648007733746) rotate(514.3865147603666)"><path class="b-outline" fill="#A5ABB6" stroke="none" d="M 25 0.5 L 46.02602447337355 0.5 L 46.02602447337355 -0.5 L 25 -0.5 Z M 137.9593588239595 0.5 L 158.98538329733304 0.5 L 158.98538329733304 3.5 L 165.98538329733304 0 L 158.98538329733304 -3.5 L 158.98538329733304 -0.5 L 137.9593588239595 -0.5 Z"/><text text-anchor="middle" pointer-events="none" font-size="8px" fill="#000000" x="91.99269164866652" y="3" transform="rotate(180 91.99269164866652 0)" font-family="Helvetica Neue, Helvetica, Arial, sans-serif">WAS_DERIVED_FROM</text></g><g class="relationship" transform="translate(212.33554537926918 -74.19631193640028) rotate(187.97967411202234)"><path class="b-outline" fill="#A5ABB6" stroke="none" d="M 25 0.5 L 29.78691934724857 0.5 L 29.78691934724857 -0.5 L 25 -0.5 Z M 123.20358347078373 0.5 L 127.9905028180323 0.5 L 127.9905028180323 3.5 L 134.9905028180323 0 L 127.9905028180323 -3.5 L 127.9905028180323 -0.5 L 123.20358347078373 -0.5 Z"/><text text-anchor="middle" pointer-events="none" font-size="8px" fill="#000000" x="76.49525140901615" y="3" transform="rotate(180 76.49525140901615 0)" font-family="Helvetica Neue, Helvetica, Arial, sans-serif">WAS_ATTRIBUTED_TO</text></g><g class="relationship" transform="translate(133.86367112526125 -222.77741740769076) rotate(482.3262670063088)"><path class="b-outline" fill="#A5ABB6" stroke="none" d="M 25 0.5 L 26.265883216482436 0.5 L 26.265883216482436 -0.5 L 25 -0.5 Z M 116.28255344353322 0.5 L 117.54843666001565 0.5 L 117.54843666001565 3.5 L 124.54843666001565 0 L 117.54843666001565 -3.5 L 117.54843666001565 -0.5 L 116.28255344353322 -0.5 Z"/><text text-anchor="middle" pointer-events="none" font-size="8px" fill="#000000" x="71.27421833000783" y="3" transform="rotate(180 71.27421833000783 0)" font-family="Helvetica Neue, Helvetica, Arial, sans-serif">WAS_GENERATED_…</text></g><g class="relationship" transform="translate(-182.47051861362718 -145.35284935110417) rotate(423.9978614938743)"><path class="b-outline" fill="#A5ABB6" stroke="none" d="M 25 0.5 L 26.134896449333596 0.5 L 26.134896449333596 -0.5 L 25 -0.5 Z M 113.18489950109141 0.5 L 114.319795950425 0.5 L 114.319795950425 3.5 L 121.319795950425 0 L 114.319795950425 -3.5 L 114.319795950425 -0.5 L 113.18489950109141 -0.5 Z"/><text text-anchor="middle" pointer-events="none" font-size="8px" fill="#000000" x="69.6598979752125" y="3" font-family="Helvetica Neue, Helvetica, Arial, sans-serif">WAS_DERIVED_FR…</text></g><g class="relationship" transform="translate(-296.3970501707673 -38.3702770151833) rotate(316.8004174096784)"><path class="b-outline" fill="#A5ABB6" stroke="none" d="M 25 0.5 L 27.93340674703194 0.5 L 27.93340674703194 -0.5 L 25 -0.5 Z M 121.3500708705671 0.5 L 124.28347761759903 0.5 L 124.28347761759903 3.5 L 131.28347761759903 0 L 124.28347761759903 -3.5 L 124.28347761759903 -0.5 L 121.3500708705671 -0.5 Z"/><text text-anchor="middle" pointer-events="none" font-size="8px" fill="#000000" x="74.64173880879952" y="3" font-family="Helvetica Neue, Helvetica, Arial, sans-serif">WAS_ATTRIBUTED_TO</text></g><g class="relationship" transform="translate(-262.08262545936407 -255.75910260470846) rotate(414.20525567843936)"><path class="b-outline" fill="#A5ABB6" stroke="none" d="M 25 0.5 L 27.333116974949405 0.5 L 27.333116974949405 -0.5 L 25 -0.5 Z M 101.78311392319159 0.5 L 104.116230898141 0.5 L 104.116230898141 3.5 L 111.116230898141 0 L 104.116230898141 -3.5 L 104.116230898141 -0.5 L 101.78311392319159 -0.5 Z"/><text text-anchor="middle" pointer-events="none" font-size="8px" fill="#000000" x="64.5581154490705" y="3" font-family="Helvetica Neue, Helvetica, Arial, sans-serif">WAS_GENERAT…</text></g><g class="relationship" transform="translate(-296.3970501707673 -38.3702770151833) rotate(501.57351963044084)"><path class="b-outline" fill="#A5ABB6" stroke="none" d="M 25 0.5 L 32.90787538658468 0.5 L 32.90787538658468 -0.5 L 25 -0.5 Z M 126.32453951011983 0.5 L 134.2324148967045 0.5 L 134.2324148967045 3.5 L 141.2324148967045 0 L 134.2324148967045 -3.5 L 134.2324148967045 -0.5 L 126.32453951011983 -0.5 Z"/><text text-anchor="middle" pointer-events="none" font-size="8px" fill="#000000" x="79.61620744835226" y="3" transform="rotate(180 79.61620744835226 0)" font-family="Helvetica Neue, Helvetica, Arial, sans-serif">WAS_ATTRIBUTED_TO</text></g><g class="relationship" transform="translate(-296.3970501707673 -38.3702770151833) rotate(237.00347347291654)"><path class="b-outline" fill="#A5ABB6" stroke="none" d="M 25 0.5 L 26.959007349628422 0.5 L 26.959007349628422 -0.5 L 25 -0.5 Z M 120.37567147316358 0.5 L 122.334678822792 0.5 L 122.334678822792 3.5 L 129.334678822792 0 L 122.334678822792 -3.5 L 122.334678822792 -0.5 L 120.37567147316358 -0.5 Z"/><text text-anchor="middle" pointer-events="none" font-size="8px" fill="#000000" x="73.667339411396" y="3" transform="rotate(180 73.667339411396 0)" font-family="Helvetica Neue, Helvetica, Arial, sans-serif">WAS_ATTRIBUTED_TO</text></g><g class="relationship" transform="translate(-262.08262545936407 -255.75910260470846) rotate(503.38644440951646)"><path class="b-outline" fill="#A5ABB6" stroke="none" d="M 25 0.5 L 25.222043283376777 0.5 L 25.222043283376777 -0.5 L 25 -0.5 Z M 115.23871351042756 0.5 L 115.46075679380434 0.5 L 115.46075679380434 3.5 L 122.46075679380434 0 L 115.46075679380434 -3.5 L 115.46075679380434 -0.5 L 115.23871351042756 -0.5 Z"/><text text-anchor="middle" pointer-events="none" font-size="8px" fill="#000000" x="70.23037839690217" y="3" transform="rotate(180 70.23037839690217 0)" font-family="Helvetica Neue, Helvetica, Arial, sans-serif">WAS_GENERATED_…</text></g><g class="relationship" transform="translate(2.4218750817811667 80.10598344508139) rotate(434.9801600799523)"><path class="b-outline" fill="#A5ABB6" stroke="none" d="M 25 0.5 L 26.6032072914675 0.5 L 26.6032072914675 -0.5 L 25 -0.5 Z M 120.01987141500265 0.5 L 121.62307870647015 0.5 L 121.62307870647015 3.5 L 128.62307870647015 0 L 121.62307870647015 -3.5 L 121.62307870647015 -0.5 L 120.01987141500265 -0.5 Z"/><text text-anchor="middle" pointer-events="none" font-size="8px" fill="#000000" x="73.31153935323508" y="3" font-family="Helvetica Neue, Helvetica, Arial, sans-serif">WAS_ATTRIBUTED_TO</text></g><g class="relationship" transform="translate(-296.3970501707673 -38.3702770151833) rotate(367.84210061460766)"><path class="b-outline" fill="#A5ABB6" stroke="none" d="M 25 0.5 L 39.66912378236535 0.5 L 39.66912378236535 -0.5 L 25 -0.5 Z M 133.0857879059005 0.5 L 147.75491168826585 0.5 L 147.75491168826585 3.5 L 154.75491168826585 0 L 147.75491168826585 -3.5 L 147.75491168826585 -0.5 L 133.0857879059005 -0.5 Z"/><text text-anchor="middle" pointer-events="none" font-size="8px" fill="#000000" x="86.37745584413292" y="3" font-family="Helvetica Neue, Helvetica, Arial, sans-serif">WAS_ATTRIBUTED_TO</text></g></g><g class="layer nodes"><g class="node" aria-label="graph-node4" transform="translate(-296.3970501707673,-38.3702770151833)"><circle class="b-outline" cx="0" cy="0" r="25" fill="#C990C0" stroke="#b261a5" stroke-width="2px"/><text class="caption" text-anchor="middle" pointer-events="none" x="0" y="5" font-size="10px" fill="#FFFFFF" font-family="Helvetica Neue, Helvetica, Arial, sans-serif"> alice</text></g><g class="node" aria-label="graph-node5" transform="translate(2.4218750817811667,80.10598344508139)"><circle class="b-outline" cx="0" cy="0" r="25" fill="#C990C0" stroke="#b261a5" stroke-width="2px"/><text class="caption" text-anchor="middle" pointer-events="none" x="0" y="5" font-size="10px" fill="#FFFFFF" font-family="Helvetica Neue, Helvetica, Arial, sans-serif"> bob</text></g><g class="node" aria-label="graph-node6" transform="translate(212.33554537926918,-74.19631193640028)"><circle class="b-outline" cx="0" cy="0" r="25" fill="#C990C0" stroke="#b261a5" stroke-width="2px"/><text class="caption" text-anchor="middle" pointer-events="none" x="0" y="5" font-size="10px" fill="#FFFFFF" font-family="Helvetica Neue, Helvetica, Arial, sans-serif"> carol</text></g><g class="node" aria-label="graph-node7" transform="translate(315.3538339124391,-139.91153409835485)"><circle class="b-outline" cx="0" cy="0" r="25" fill="#F79767" stroke="#f36924" stroke-width="2px"/><text class="caption" text-anchor="middle" pointer-events="none" x="0" y="5" font-size="10px" fill="#FFFFFF" font-family="Helvetica Neue, Helvetica, Arial, sans-serif"> load_inv…</text></g><g class="node" aria-label="graph-node8" transform="translate(-215.98562023176066,162.39252778976817)"><circle class="b-outline" cx="0" cy="0" r="25" fill="#F79767" stroke="#f36924" stroke-width="2px"/><text class="caption" text-anchor="middle" pointer-events="none" x="0" y="5" font-size="10px" fill="#FFFFFF" font-family="Helvetica Neue, Helvetica, Arial, sans-serif"> transfor…</text></g><g class="node" aria-label="graph-node9" transform="translate(133.86367112526125,-222.77741740769076)"><circle class="b-outline" cx="0" cy="0" r="25" fill="#F79767" stroke="#f36924" stroke-width="2px"/><text class="caption" text-anchor="middle" pointer-events="none" x="0" y="5" font-size="10px" fill="#FFFFFF" font-family="Helvetica Neue, Helvetica, Arial, sans-serif"> convert_…</text></g><g class="node" aria-label="graph-node10" transform="translate(-262.08262545936407,-255.75910260470846)"><circle class="b-outline" cx="0" cy="0" r="25" fill="#F79767" stroke="#f36924" stroke-width="2px"/><text class="caption" text-anchor="middle" pointer-events="none" x="0" y="5" font-size="10px" fill="#FFFFFF" font-family="Helvetica Neue, Helvetica, Arial, sans-serif"> clean_w…</text></g><g class="node" aria-label="graph-node11" transform="translate(-58.93235158956679,-215.37943277729147)"><circle class="b-outline" cx="0" cy="0" r="25" fill="#F79767" stroke="#f36924" stroke-width="2px"/><text class="caption" text-anchor="middle" pointer-events="none" x="0" y="5" font-size="10px" fill="#FFFFFF" font-family="Helvetica Neue, Helvetica, Arial, sans-serif"> validate…</text></g><g class="node" aria-label="graph-node26" transform="translate(-380.44589369419606,-167.81132533335995)"><circle class="b-outline" cx="0" cy="0" r="25" fill="#57C7E3" stroke="#23b3d7" stroke-width="2px"/><text class="caption" text-anchor="middle" pointer-events="none" x="0" y="5" font-size="10px" fill="#2A2C34" font-family="Helvetica Neue, Helvetica, Arial, sans-serif"> a</text></g><g class="node" aria-label="graph-node27" transform="translate(42.23383400528927,228.4807058135739)"><circle class="b-outline" cx="0" cy="0" r="25" fill="#57C7E3" stroke="#23b3d7" stroke-width="2px"/><text class="caption" text-anchor="middle" pointer-events="none" x="0" y="5" font-size="10px" fill="#2A2C34" font-family="Helvetica Neue, Helvetica, Arial, sans-serif"> b</text></g><g class="node" aria-label="graph-node28" transform="translate(-118.3232333830745,-13.843882035091355)"><circle class="b-outline" cx="0" cy="0" r="25" fill="#57C7E3" stroke="#23b3d7" stroke-width="2px"/><text class="caption" text-anchor="middle" pointer-events="none" x="0" y="5" font-size="10px" fill="#2A2C34" font-family="Helvetica Neue, Helvetica, Arial, sans-serif"> c</text></g><g class="node" aria-label="graph-node29" transform="translate(128.731016859705,168.8107822832281)"><circle class="b-outline" cx="0" cy="0" r="25" fill="#57C7E3" stroke="#23b3d7" stroke-width="2px"/><text class="caption" text-anchor="middle" pointer-events="none" x="0" y="5" font-size="10px" fill="#2A2C34" font-family="Helvetica Neue, Helvetica, Arial, sans-serif"> d</text></g><g class="node" aria-label="graph-node30" transform="translate(134.00789153808796,44.80845522437967)"><circle class="b-outline" cx="0" cy="0" r="25" fill="#57C7E3" stroke="#23b3d7" stroke-width="2px"/><text class="caption" text-anchor="middle" pointer-events="none" x="0" y="5" font-size="10px" fill="#2A2C34" font-family="Helvetica Neue, Helvetica, Arial, sans-serif"> e</text></g><g class="node" aria-label="graph-node31" transform="translate(-87.24667689107106,172.13844149667645)"><circle class="b-outline" cx="0" cy="0" r="25" fill="#57C7E3" stroke="#23b3d7" stroke-width="2px"/><text class="caption" text-anchor="middle" pointer-events="none" x="0" y="5" font-size="10px" fill="#2A2C34" font-family="Helvetica Neue, Helvetica, Arial, sans-serif"> f</text></g><g class="node" aria-label="graph-node32" transform="translate(-302.55128736349866,100.4745744441745)"><circle class="b-outline" cx="0" cy="0" r="25" fill="#57C7E3" stroke="#23b3d7" stroke-width="2px"/><text class="caption" text-anchor="middle" pointer-events="none" x="0" y="5" font-size="10px" fill="#2A2C34" font-family="Helvetica Neue, Helvetica, Arial, sans-serif"> g</text></g><g class="node" aria-label="graph-node33" transform="translate(53.89417002826404,-96.40648007733746)"><circle class="b-outline" cx="0" cy="0" r="25" fill="#57C7E3" stroke="#23b3d7" stroke-width="2px"/><text class="caption" text-anchor="middle" pointer-events="none" x="0" y="5" font-size="10px" fill="#2A2C34" font-family="Helvetica Neue, Helvetica, Arial, sans-serif"> h</text></g><g class="node" aria-label="graph-node34" transform="translate(-182.47051861362718,-145.35284935110417)"><circle class="b-outline" cx="0" cy="0" r="25" fill="#57C7E3" stroke="#23b3d7" stroke-width="2px"/><text class="caption" text-anchor="middle" pointer-events="none" x="0" y="5" font-size="10px" fill="#2A2C34" font-family="Helvetica Neue, Helvetica, Arial, sans-serif"> i</text></g><g class="node" aria-label="graph-node35" transform="translate(-426.62457093156627,64.94481674601779)"><circle class="b-outline" cx="0" cy="0" r="25" fill="#57C7E3" stroke="#23b3d7" stroke-width="2px"/><text class="caption" text-anchor="middle" pointer-events="none" x="0" y="5" font-size="10px" fill="#2A2C34" font-family="Helvetica Neue, Helvetica, Arial, sans-serif"> j</text></g></g></svg>