<?xml version="1.0" encoding="UTF-8" standalone="no"?>
<!-- Created with Inkscape (http://www.inkscape.org/) -->

<svg
   width="121.44375mm"
   height="179.12291mm"
   viewBox="0 0 121.44375 179.12291"
   version="1.1"
   id="svg1"
   inkscape:version="1.3.2 (091e20e, 2023-11-25, custom)"
   sodipodi:docname="20.svg"
   xmlns:inkscape="http://www.inkscape.org/namespaces/inkscape"
   xmlns:sodipodi="http://sodipodi.sourceforge.net/DTD/sodipodi-0.dtd"
   xmlns="http://www.w3.org/2000/svg"
   xmlns:svg="http://www.w3.org/2000/svg">
  <sodipodi:namedview
     id="namedview1"
     pagecolor="#ffffff"
     bordercolor="#000000"
     borderopacity="0.25"
     inkscape:showpageshadow="2"
     inkscape:pageopacity="0.0"
     inkscape:pagecheckerboard="0"
     inkscape:deskcolor="#d1d1d1"
     inkscape:document-units="mm"
     inkscape:zoom="1.6311518"
     inkscape:cx="829.16869"
     inkscape:cy="188.5171"
     inkscape:window-width="3840"
     inkscape:window-height="2066"
     inkscape:window-x="-11"
     inkscape:window-y="-11"
     inkscape:window-maximized="1"
     inkscape:current-layer="layer1" />
  <defs
     id="defs1">
    <clipPath
       id="clip0">
      <rect
         x="1273"
         y="290"
         width="432"
         height="677"
         id="rect1" />
    </clipPath>
    <clipPath
       id="clip0-1">
      <rect
         x="1243"
         y="288"
         width="463"
         height="677"
         id="rect1-2" />
    </clipPath>
  </defs>
  <g
     inkscape:label="Layer 1"
     inkscape:groupmode="layer"
     id="layer1"
     transform="translate(114.30001,-98.689581)">
    <g
       clip-path="url(#clip0-1)"
       transform="matrix(0.26458333,0,0,0.26458333,-444.23542,22.489582)"
       id="g16">
      <rect
         x="1274"
         y="288"
         width="432"
         height="677"
         fill="#ffd966"
         fill-opacity="0.4"
         id="rect2" />
      <text
         font-family="Arial, Arial_MSFontService, sans-serif"
         font-weight="400"
         font-size="36px"
         transform="translate(1409.69,359)"
         id="text2">Relational</text>
      <path
         d="m 1317,746 c 0,-11.046 23.28,-20 52,-20 28.72,0 52,8.954 52,20 v 80 c 0,11.046 -23.28,20 -52,20 -28.72,0 -52,-8.954 -52,-20 z"
         fill="#ffc000"
         fill-rule="evenodd"
         id="path2" />
      <path
         d="m 1421,746 c 0,11.046 -23.28,20 -52,20 -28.72,0 -52,-8.954 -52,-20"
         stroke="#bf9000"
         stroke-width="2"
         stroke-miterlimit="8"
         fill="none"
         fill-rule="evenodd"
         id="path3" />
      <path
         d="m 1317,746 c 0,-11.046 23.28,-20 52,-20 28.72,0 52,8.954 52,20 v 80 c 0,11.046 -23.28,20 -52,20 -28.72,0 -52,-8.954 -52,-20 z"
         stroke="#bf9000"
         stroke-width="2"
         stroke-miterlimit="8"
         fill="none"
         fill-rule="evenodd"
         id="path4" />
      <path
         d="m 1444,746 c 0,-11.046 23.51,-20 52.5,-20 28.99,0 52.5,8.954 52.5,20 v 80 c 0,11.046 -23.51,20 -52.5,20 -28.99,0 -52.5,-8.954 -52.5,-20 z"
         fill="#ffc000"
         fill-rule="evenodd"
         id="path5" />
      <path
         d="m 1549,746 c 0,11.046 -23.51,20 -52.5,20 -28.99,0 -52.5,-8.954 -52.5,-20"
         stroke="#bf9000"
         stroke-width="2"
         stroke-miterlimit="8"
         fill="none"
         fill-rule="evenodd"
         id="path6" />
      <path
         d="m 1444,746 c 0,-11.046 23.51,-20 52.5,-20 28.99,0 52.5,8.954 52.5,20 v 80 c 0,11.046 -23.51,20 -52.5,20 -28.99,0 -52.5,-8.954 -52.5,-20 z"
         stroke="#bf9000"
         stroke-width="2"
         stroke-miterlimit="8"
         fill="none"
         fill-rule="evenodd"
         id="path7" />
      <path
         d="m 1572,746 c 0,-11.046 23.51,-20 52.5,-20 28.99,0 52.5,8.954 52.5,20 v 80 c 0,11.046 -23.51,20 -52.5,20 -28.99,0 -52.5,-8.954 -52.5,-20 z"
         fill="#ffc000"
         fill-rule="evenodd"
         id="path8" />
      <path
         d="m 1677,746 c 0,11.046 -23.51,20 -52.5,20 -28.99,0 -52.5,-8.954 -52.5,-20"
         stroke="#bf9000"
         stroke-width="2"
         stroke-miterlimit="8"
         fill="none"
         fill-rule="evenodd"
         id="path9" />
      <path
         d="m 1572,746 c 0,-11.046 23.51,-20 52.5,-20 28.99,0 52.5,8.954 52.5,20 v 80 c 0,11.046 -23.51,20 -52.5,20 -28.99,0 -52.5,-8.954 -52.5,-20 z"
         stroke="#bf9000"
         stroke-width="2"
         stroke-miterlimit="8"
         fill="none"
         fill-rule="evenodd"
         id="path10" />
      <text
         font-family="Arial, Arial_MSFontService, sans-serif"
         font-weight="400"
         font-size="28px"
         transform="translate(1361.59,880)"
         id="text10">Operational (relational)<tspan
   font-size="28px"
   x="77.5"
   y="34"
   id="tspan10">databases</tspan></text>
      <path
         d="M 0,62.5 H 11.75 V 0 h 23.5 V 62.5 H 47 L 23.5,86 Z"
         stroke="#507e32"
         stroke-width="2"
         stroke-miterlimit="8"
         fill="#70ad47"
         fill-rule="evenodd"
         transform="matrix(1,0,0,-1,1480,697)"
         id="path11" />
      <rect
         x="1418"
         y="460.25"
         width="131.75"
         height="117.75"
         fill="#70ad47"
         id="rect11" />
      <path
         d="M 1549.75,460.25 1589,421 V 538.75 L 1549.75,578 Z"
         fill="#5a8b39"
         fill-rule="evenodd"
         id="path12" />
      <path
         d="M 1418,460.25 1457.25,421 H 1589 l -39.25,39.25 z"
         fill="#8cbd6b"
         fill-rule="evenodd"
         id="path13" />
      <path
         d="M 1418,460.25 1457.25,421 H 1589 V 538.75 L 1549.75,578 H 1418 Z m 0,0 h 131.75 L 1589,421 m -39.25,39.25 V 578"
         stroke="#507e32"
         stroke-width="2"
         stroke-miterlimit="8"
         fill="none"
         fill-rule="evenodd"
         id="path14" />
      <text
         fill="#ffffff"
         font-family="Arial, Arial_MSFontService, sans-serif"
         font-weight="400"
         font-size="36px"
         transform="translate(1440.83,518)"
         id="text15">DWH<tspan
   font-size="24px"
   x="-5.6199999"
   y="32"
   id="tspan14">(ROLAP)</tspan><tspan
   fill="#000000"
   font-size="28px"
   x="82.185699"
   y="153"
   id="tspan15">ETL</tspan></text>
      <path
         d="m 1247,487 29,-29 29,29 h -14.5 v 312 h -29 V 487 Z"
         fill="#333f50"
         fill-rule="evenodd"
         id="path15" />
      <text
         fill="#ffffff"
         font-family="Calibri, Calibri_MSFontService, sans-serif"
         font-weight="400"
         font-size="36px"
         transform="rotate(-90,1024.5,-263.5)"
         id="text16">From DB to DWH</text>
    </g>
  </g>
</svg>
