<?xml version="1.0" encoding="UTF-8" standalone="no"?>
<!-- Created with Inkscape (http://www.inkscape.org/) -->

<svg
   width="239.71249mm"
   height="223.57291mm"
   viewBox="0 0 239.7125 223.57291"
   version="1.1"
   id="svg1"
   inkscape:version="1.3.2 (091e20e, 2023-11-25, custom)"
   sodipodi:docname="24.svg"
   xmlns:inkscape="http://www.inkscape.org/namespaces/inkscape"
   xmlns:sodipodi="http://sodipodi.sourceforge.net/DTD/sodipodi-0.dtd"
   xmlns="http://www.w3.org/2000/svg"
   xmlns:svg="http://www.w3.org/2000/svg">
  <sodipodi:namedview
     id="namedview1"
     pagecolor="#ffffff"
     bordercolor="#000000"
     borderopacity="0.25"
     inkscape:showpageshadow="2"
     inkscape:pageopacity="0.0"
     inkscape:pagecheckerboard="0"
     inkscape:deskcolor="#d1d1d1"
     inkscape:document-units="mm"
     inkscape:zoom="1.6311518"
     inkscape:cx="621.34009"
     inkscape:cy="370.59702"
     inkscape:window-width="3840"
     inkscape:window-height="2066"
     inkscape:window-x="-11"
     inkscape:window-y="-11"
     inkscape:window-maximized="1"
     inkscape:current-layer="layer1" />
  <defs
     id="defs1">
    <clipPath
       id="clip0">
      <rect
         x="1273"
         y="290"
         width="432"
         height="677"
         id="rect1" />
    </clipPath>
    <clipPath
       id="clip0-1">
      <rect
         x="1243"
         y="288"
         width="463"
         height="677"
         id="rect1-2" />
    </clipPath>
    <clipPath
       id="clip0-0">
      <rect
         x="273"
         y="90"
         width="906"
         height="845"
         id="rect1-0" />
    </clipPath>
  </defs>
  <g
     inkscape:label="Layer 1"
     inkscape:groupmode="layer"
     id="layer1"
     transform="translate(59.266681,-50.535414)">
    <g
       clip-path="url(#clip0-0)"
       transform="matrix(0.26458333,0,0,0.26458333,-131.49793,26.722914)"
       id="g43">
      <rect
         x="273"
         y="258"
         width="432"
         height="677"
         fill="#ffd966"
         fill-opacity="0.4"
         id="rect2" />
      <text
         font-family="Arial, Arial_MSFontService, sans-serif"
         font-weight="400"
         font-size="36px"
         transform="translate(408.714,329)"
         id="text2">Relational</text>
      <rect
         x="747"
         y="258"
         width="432"
         height="677"
         fill="#9dc3e6"
         fill-opacity="0.4"
         id="rect3" />
      <text
         font-family="Arial, Arial_MSFontService, sans-serif"
         font-weight="400"
         font-size="36px"
         transform="translate(903.714,329)"
         id="text3">NoSQL<tspan
   font-size="36px"
   x="-64"
   y="43"
   id="tspan3">(Non relational)</tspan></text>
      <rect
         x="804"
         y="418"
         width="319"
         height="144"
         fill="#00b0f0"
         id="rect4" />
      <text
         font-family="Arial, Arial_MSFontService, sans-serif"
         font-weight="400"
         font-size="16px"
         transform="translate(818.623,439)"
         id="text11">[{<tspan
   font-size="16px"
   x="22.5"
   y="19"
   id="tspan4">&quot;_id&quot;: 1,</tspan><tspan
   font-size="16px"
   x="22.5"
   y="38"
   id="tspan5">“</tspan>firstname<tspan
   font-size="16px"
   x="93.749901"
   y="38"
   id="tspan6">&quot;: “Alice”</tspan><tspan
   font-size="16px"
   x="0"
   y="57"
   id="tspan7">}, {</tspan><tspan
   font-size="16px"
   x="22.5"
   y="76"
   id="tspan8">&quot;_id&quot;: 2,</tspan><tspan
   font-size="16px"
   x="22.5"
   y="96"
   id="tspan9">“name&quot;: “Bob”</tspan><tspan
   font-size="16px"
   x="0"
   y="115"
   id="tspan10">}]</tspan><tspan
   font-size="28px"
   x="161.35001"
   y="109"
   id="tspan11">Document</tspan></text>
      <rect
         x="803"
         y="580"
         width="320"
         height="100"
         fill="#00b0f0"
         id="rect11" />
      <text
         font-family="Arial, Arial_MSFontService, sans-serif"
         font-weight="400"
         font-size="16px"
         transform="translate(817.058,608)"
         id="text17">[<tspan
   font-size="16px"
   x="18"
   y="19"
   id="tspan12">(“k1”, “v1),</tspan><tspan
   font-size="16px"
   x="18"
   y="38"
   id="tspan13">(“k2”, “v2)</tspan><tspan
   font-size="16px"
   x="0"
   y="57"
   id="tspan14">]</tspan><tspan
   font-size="28px"
   x="165.944"
   y="58"
   id="tspan15">Key</tspan><tspan
   font-size="28px"
   x="214.194"
   y="58"
   id="tspan16">-</tspan><tspan
   font-size="28px"
   x="223.444"
   y="58"
   id="tspan17">value</tspan></text>
      <rect
         x="802"
         y="695"
         width="321"
         height="100"
         fill="#00b0f0"
         id="rect17" />
      <text
         font-family="Arial, Arial_MSFontService, sans-serif"
         font-weight="400"
         font-size="28px"
         transform="translate(1030.21,781)"
         id="text18">Graph</text>
      <path
         d="m 823,719 c 0,-3.866 3.134,-7 7,-7 3.866,0 7,3.134 7,7 0,3.866 -3.134,7 -7,7 -3.866,0 -7,-3.134 -7,-7 z"
         stroke="#203864"
         stroke-width="2"
         stroke-miterlimit="8"
         fill="#002060"
         fill-rule="evenodd"
         id="path18" />
      <path
         d="m 844,760 c 0,-3.866 3.134,-7 7,-7 3.866,0 7,3.134 7,7 0,3.866 -3.134,7 -7,7 -3.866,0 -7,-3.134 -7,-7 z"
         stroke="#203864"
         stroke-width="2"
         stroke-miterlimit="8"
         fill="#002060"
         fill-rule="evenodd"
         id="path19" />
      <path
         d="m 880,726 c 0,-3.866 3.134,-7 7,-7 3.866,0 7,3.134 7,7 0,3.866 -3.134,7 -7,7 -3.866,0 -7,-3.134 -7,-7 z"
         stroke="#203864"
         stroke-width="2"
         stroke-miterlimit="8"
         fill="#002060"
         fill-rule="evenodd"
         id="path20" />
      <path
         d="m 907,767 c 0,-3.866 3.358,-7 7.5,-7 4.142,0 7.5,3.134 7.5,7 0,3.866 -3.358,7 -7.5,7 -4.142,0 -7.5,-3.134 -7.5,-7 z"
         stroke="#203864"
         stroke-width="2"
         stroke-miterlimit="8"
         fill="#002060"
         fill-rule="evenodd"
         id="path21" />
      <path
         d="m 949,736 c 0,-3.866 3.358,-7 7.5,-7 4.142,0 7.5,3.134 7.5,7 0,3.866 -3.358,7 -7.5,7 -4.142,0 -7.5,-3.134 -7.5,-7 z"
         stroke="#203864"
         stroke-width="2"
         stroke-miterlimit="8"
         fill="#002060"
         fill-rule="evenodd"
         id="path22" />
      <path
         d="m 835.5,724.5 10.807,30.945"
         stroke="#203864"
         stroke-miterlimit="8"
         fill="none"
         fill-rule="evenodd"
         id="path23" />
      <path
         d="M 0,0 31.8688,20.7946"
         stroke="#203864"
         stroke-miterlimit="8"
         fill="none"
         fill-rule="evenodd"
         transform="matrix(-1,0,0,1,952.369,741.5)"
         id="path24" />
      <path
         d="m 892.5,731.5 17.507,30.945"
         stroke="#203864"
         stroke-miterlimit="8"
         fill="none"
         fill-rule="evenodd"
         id="path25" />
      <path
         d="M 0.388755,-0.314435 17.4237,20.7468 16.6462,21.3757 -0.388755,0.314435 Z M 20.4422,15.733 23.3236,28.8364 11.1121,23.2795 Z"
         fill="#203864"
         transform="matrix(1,0,0,-1,858.5,760.336)"
         id="path26" />
      <path
         d="m 858.573,760.005 39.011,5.744 -0.146,0.989 -39.011,-5.743 z m 37.833,0.011 10.998,7.684 -12.746,4.188 z"
         fill="#203864"
         id="path27" />
      <path
         d="m 316,715 c 0,-11.046 23.281,-20 52,-20 28.719,0 52,8.954 52,20 v 80 c 0,11.046 -23.281,20 -52,20 -28.719,0 -52,-8.954 -52,-20 z"
         fill="#ffc000"
         fill-rule="evenodd"
         id="path28" />
      <path
         d="m 420,715 c 0,11.046 -23.281,20 -52,20 -28.719,0 -52,-8.954 -52,-20"
         stroke="#bf9000"
         stroke-width="2"
         stroke-miterlimit="8"
         fill="none"
         fill-rule="evenodd"
         id="path29" />
      <path
         d="m 316,715 c 0,-11.046 23.281,-20 52,-20 28.719,0 52,8.954 52,20 v 80 c 0,11.046 -23.281,20 -52,20 -28.719,0 -52,-8.954 -52,-20 z"
         stroke="#bf9000"
         stroke-width="2"
         stroke-miterlimit="8"
         fill="none"
         fill-rule="evenodd"
         id="path30" />
      <path
         d="m 443,715 c 0,-11.046 23.505,-20 52.5,-20 28.995,0 52.5,8.954 52.5,20 v 80 c 0,11.046 -23.505,20 -52.5,20 -28.995,0 -52.5,-8.954 -52.5,-20 z"
         fill="#ffc000"
         fill-rule="evenodd"
         id="path31" />
      <path
         d="m 548,715 c 0,11.046 -23.505,20 -52.5,20 -28.995,0 -52.5,-8.954 -52.5,-20"
         stroke="#bf9000"
         stroke-width="2"
         stroke-miterlimit="8"
         fill="none"
         fill-rule="evenodd"
         id="path32" />
      <path
         d="m 443,715 c 0,-11.046 23.505,-20 52.5,-20 28.995,0 52.5,8.954 52.5,20 v 80 c 0,11.046 -23.505,20 -52.5,20 -28.995,0 -52.5,-8.954 -52.5,-20 z"
         stroke="#bf9000"
         stroke-width="2"
         stroke-miterlimit="8"
         fill="none"
         fill-rule="evenodd"
         id="path33" />
      <path
         d="m 571,715 c 0,-11.046 23.505,-20 52.5,-20 28.995,0 52.5,8.954 52.5,20 v 80 c 0,11.046 -23.505,20 -52.5,20 -28.995,0 -52.5,-8.954 -52.5,-20 z"
         fill="#ffc000"
         fill-rule="evenodd"
         id="path34" />
      <path
         d="m 676,715 c 0,11.046 -23.505,20 -52.5,20 -28.995,0 -52.5,-8.954 -52.5,-20"
         stroke="#bf9000"
         stroke-width="2"
         stroke-miterlimit="8"
         fill="none"
         fill-rule="evenodd"
         id="path35" />
      <path
         d="m 571,715 c 0,-11.046 23.505,-20 52.5,-20 28.995,0 52.5,8.954 52.5,20 v 80 c 0,11.046 -23.505,20 -52.5,20 -28.995,0 -52.5,-8.954 -52.5,-20 z"
         stroke="#bf9000"
         stroke-width="2"
         stroke-miterlimit="8"
         fill="none"
         fill-rule="evenodd"
         id="path36" />
      <text
         font-family="Arial, Arial_MSFontService, sans-serif"
         font-weight="400"
         font-size="28px"
         transform="translate(360.607,849)"
         id="text36">Operational (relational)<tspan
   font-size="28px"
   x="77.5"
   y="34"
   id="tspan36">databases</tspan></text>
      <path
         d="M 0,62.5 H 11.75 V 0 h 23.5 V 62.5 H 47 L 23.5,86 Z"
         stroke="#507e32"
         stroke-width="2"
         stroke-miterlimit="8"
         fill="#70ad47"
         fill-rule="evenodd"
         transform="matrix(1,0,0,-1,479,666)"
         id="path37" />
      <rect
         x="417"
         y="429.25"
         width="131.75"
         height="117.75"
         fill="#70ad47"
         id="rect37" />
      <path
         d="M 548.75,429.25 588,390 V 507.75 L 548.75,547 Z"
         fill="#5a8b39"
         fill-rule="evenodd"
         id="path38" />
      <path
         d="M 417,429.25 456.25,390 H 588 l -39.25,39.25 z"
         fill="#8cbd6b"
         fill-rule="evenodd"
         id="path39" />
      <path
         d="M 417,429.25 456.25,390 H 588 V 507.75 L 548.75,547 H 417 Z m 0,0 H 548.75 L 588,390 m -39.25,39.25 V 547"
         stroke="#507e32"
         stroke-width="2"
         stroke-miterlimit="8"
         fill="none"
         fill-rule="evenodd"
         id="path40" />
      <text
         fill="#ffffff"
         font-family="Arial, Arial_MSFontService, sans-serif"
         font-weight="400"
         font-size="36px"
         transform="translate(439.846,487)"
         id="text41">DWH<tspan
   font-size="24px"
   x="-5.6199999"
   y="32"
   id="tspan40">(ROLAP)</tspan><tspan
   fill="#000000"
   font-size="28px"
   x="82.185699"
   y="153"
   id="tspan41">ETL</tspan></text>
      <path
         d="m 960,230 29,29 -29,29 V 273.5 H 443 v -29 h 517 z"
         fill="#333f50"
         fill-rule="evenodd"
         id="path41" />
      <text
         fill="#ffffff"
         font-family="Calibri, Calibri_MSFontService, sans-serif"
         font-weight="400"
         font-size="36px"
         transform="translate(456.752,271)"
         id="text42">From RELATIONAL to SCHEMALESS</text>
      <path
         d="m 862,90 h 30.333 v 0 h 45.5 H 1044 v 43.167 0 18.5 V 164 H 937.833 L 859.654,231.069 892.333,164 H 862 v -12.333 -18.5 0 z"
         fill="#333f50"
         fill-rule="evenodd"
         id="path42" />
      <text
         fill="#ffffff"
         font-family="Arial, Arial_MSFontService, sans-serif"
         font-weight="400"
         font-size="22px"
         transform="translate(890.893,135)"
         id="text43">Big data Vs?</text>
    </g>
  </g>
</svg>
