<?xml version="1.0" encoding="UTF-8" standalone="no"?>
<!-- Created with Inkscape (http://www.inkscape.org/) -->

<svg
   width="212.82533mm"
   height="117.03046mm"
   viewBox="0 0 212.82534 117.03046"
   version="1.1"
   id="svg1"
   inkscape:version="1.3.2 (091e20e, 2023-11-25, custom)"
   sodipodi:docname="248.svg"
   xmlns:inkscape="http://www.inkscape.org/namespaces/inkscape"
   xmlns:sodipodi="http://sodipodi.sourceforge.net/DTD/sodipodi-0.dtd"
   xmlns="http://www.w3.org/2000/svg"
   xmlns:svg="http://www.w3.org/2000/svg">
  <sodipodi:namedview
     id="namedview1"
     pagecolor="#ffffff"
     bordercolor="#000000"
     borderopacity="0.25"
     inkscape:showpageshadow="2"
     inkscape:pageopacity="0.0"
     inkscape:pagecheckerboard="0"
     inkscape:deskcolor="#d1d1d1"
     inkscape:document-units="mm"
     inkscape:zoom="1.6311518"
     inkscape:cx="740.88751"
     inkscape:cy="232.65768"
     inkscape:window-width="3840"
     inkscape:window-height="2054"
     inkscape:window-x="2869"
     inkscape:window-y="-11"
     inkscape:window-maximized="1"
     inkscape:current-layer="layer1" />
  <defs
     id="defs1">
    <clipPath
       id="clip0">
      <rect
         x="1273"
         y="290"
         width="432"
         height="677"
         id="rect1" />
    </clipPath>
    <clipPath
       id="clip0-1">
      <rect
         x="1243"
         y="288"
         width="463"
         height="677"
         id="rect1-2" />
    </clipPath>
    <clipPath
       id="clip0-0">
      <rect
         x="273"
         y="90"
         width="906"
         height="845"
         id="rect1-0" />
    </clipPath>
    <clipPath
       id="clip0-8">
      <rect
         x="204"
         y="258"
         width="1520"
         height="778"
         id="rect1-8" />
    </clipPath>
    <clipPath
       id="clip1">
      <rect
         x="1486"
         y="866"
         width="63"
         height="63"
         id="rect2" />
    </clipPath>
    <clipPath
       id="clip2">
      <rect
         x="1486"
         y="866"
         width="63"
         height="63"
         id="rect3" />
    </clipPath>
    <clipPath
       id="clip3">
      <rect
         x="1486"
         y="866"
         width="63"
         height="63"
         id="rect4" />
    </clipPath>
    <clipPath
       id="clip4">
      <rect
         x="1324"
         y="819"
         width="62"
         height="62"
         id="rect5" />
    </clipPath>
    <clipPath
       id="clip5">
      <rect
         x="1324"
         y="819"
         width="62"
         height="62"
         id="rect6" />
    </clipPath>
    <clipPath
       id="clip6">
      <rect
         x="1324"
         y="819"
         width="62"
         height="62"
         id="rect7" />
    </clipPath>
    <clipPath
       id="clip7">
      <rect
         x="1437"
         y="813"
         width="63"
         height="62"
         id="rect8" />
    </clipPath>
    <clipPath
       id="clip8">
      <rect
         x="1437"
         y="813"
         width="63"
         height="62"
         id="rect9" />
    </clipPath>
    <clipPath
       id="clip9">
      <rect
         x="1437"
         y="813"
         width="63"
         height="62"
         id="rect10" />
    </clipPath>
    <clipPath
       id="clip10">
      <rect
         x="1370"
         y="866"
         width="62"
         height="62"
         id="rect11" />
    </clipPath>
    <clipPath
       id="clip11">
      <rect
         x="1370"
         y="866"
         width="62"
         height="62"
         id="rect12" />
    </clipPath>
    <clipPath
       id="clip12">
      <rect
         x="1370"
         y="866"
         width="62"
         height="62"
         id="rect13" />
    </clipPath>
    <clipPath
       id="clip0-6">
      <rect
         x="157"
         y="257"
         width="1473"
         height="689"
         id="rect1-4" />
    </clipPath>
    <clipPath
       id="clip0-9">
      <rect
         x="679"
         y="358"
         width="1110"
         height="543"
         id="rect1-9" />
    </clipPath>
    <clipPath
       id="clip0-91">
      <rect
         x="971"
         y="402"
         width="818"
         height="458"
         id="rect1-3" />
    </clipPath>
  </defs>
  <g
     inkscape:label="Layer 1"
     inkscape:groupmode="layer"
     id="layer1"
     transform="translate(90.95823,-87.017213)">
    <g
       clip-path="url(#clip0-91)"
       transform="matrix(0.26458333,0,0,0.26458333,-349.26535,-23.404857)"
       id="g42">
      <path
         d="m 976.467,753.475 h 315.003 v 106 H 976.467 Z"
         stroke="#000000"
         stroke-width="0.37622"
         stroke-miterlimit="8"
         fill="#ffc000"
         fill-rule="evenodd"
         id="path1" />
      <text
         font-family="Arial, Arial_MSFontService, sans-serif"
         font-weight="400"
         font-size="21px"
         transform="translate(986.041,793)"
         id="text4">Ingestion (acquiring)<tspan
   font-size="18px"
   x="0"
   y="23"
   id="tspan1">•</tspan><tspan
   font-size="18px"
   x="33.858898"
   y="23"
   id="tspan2">Batch</tspan><tspan
   font-size="18px"
   x="0"
   y="45"
   id="tspan3">•</tspan><tspan
   font-size="18px"
   x="33.858898"
   y="45"
   id="tspan4">Streaming</tspan></text>
      <path
         d="m 976.467,537.475 h 315.003 v 216 H 976.467 Z"
         stroke="#000000"
         stroke-width="0.37622"
         stroke-miterlimit="8"
         fill="#ffc000"
         fill-rule="evenodd"
         id="path4" />
      <text
         font-family="Arial, Arial_MSFontService, sans-serif"
         font-weight="400"
         font-size="21px"
         transform="translate(985.803,610)"
         id="text12">Analytics (analyzing)<tspan
   font-size="18px"
   x="0"
   y="23"
   id="tspan5">•</tspan><tspan
   font-size="18px"
   x="33.858898"
   y="23"
   id="tspan6">Processing</tspan><tspan
   font-size="18px"
   x="54.174099"
   y="45"
   id="tspan7">•</tspan><tspan
   font-size="18px"
   x="88.032997"
   y="45"
   id="tspan8">Batch</tspan><tspan
   font-size="18px"
   x="54.174099"
   y="66"
   id="tspan9">•</tspan><tspan
   font-size="18px"
   x="88.032997"
   y="66"
   id="tspan10">Streaming</tspan><tspan
   font-size="18px"
   x="0"
   y="89"
   id="tspan11">•</tspan><tspan
   font-size="18px"
   x="33.858898"
   y="89"
   id="tspan12">Machine learning</tspan></text>
      <path
         d="m 976.467,447.475 h 315.003 v 90 H 976.467 Z"
         stroke="#000000"
         stroke-width="0.37622"
         stroke-miterlimit="8"
         fill="none"
         fill-rule="evenodd"
         id="path12" />
      <text
         font-family="Arial, Arial_MSFontService, sans-serif"
         font-weight="400"
         font-size="21px"
         transform="translate(985.803,480)"
         id="text16">Serve (deciding)<tspan
   font-size="18px"
   x="0"
   y="23"
   id="tspan13">•</tspan><tspan
   font-size="18px"
   x="33.858898"
   y="23"
   id="tspan14">SQL</tspan><tspan
   font-size="18px"
   x="0"
   y="44"
   id="tspan15">•</tspan><tspan
   font-size="18px"
   x="33.858898"
   y="44"
   id="tspan16">BI tools (e.g., Tableau)</tspan></text>
      <path
         d="m 1270.87,460.007 -0.68,-6 -7.54,7.333 0.41,3.467 -10.96,10.666 c -0.96,-0.466 -2.05,-0.8 -3.22,-0.8 -3.76,0 -6.85,3 -6.85,6.667 0,3.667 3.09,6.667 6.85,6.667 3.77,0 6.85,-3 6.85,-6.667 0,-1.133 -0.27,-2.133 -0.75,-3.067 l 10.96,-10.666 3.56,0.4 7.53,-7.334 z"
         fill="#333f50"
         fill-rule="evenodd"
         id="path16" />
      <path
         d="m 1271.48,469.965 -0.89,0.939 -1.3,-0.134 -1.44,-0.201 c 1.92,3.221 3.08,6.911 3.08,10.938 0,11.81 -9.85,21.473 -21.9,21.473 -12.04,0 -21.89,-9.663 -21.89,-21.473 0,-11.811 9.85,-21.474 21.89,-21.474 4.04,0 7.87,1.074 11.16,3.02 l -0.14,-1.342 -0.21,-1.343 0.96,-0.939 0.48,-0.47 c -3.69,-1.879 -7.8,-2.952 -12.25,-2.952 -14.36,0 -26,11.408 -26,25.5 0,14.092 11.64,25.5 26,25.5 14.37,0 26,-11.408 26,-25.5 0,-4.362 -1.09,-8.388 -3.07,-11.945 z"
         fill="#333f50"
         fill-rule="evenodd"
         id="path17" />
      <path
         d="m 1260.02,477.473 c 0.61,1.4 0.89,2.934 0.89,4.534 0,6.6 -5.57,12 -12.38,12 -6.8,0 -12.37,-5.4 -12.37,-12 0,-6.6 5.57,-12 12.37,-12 1.65,0 3.24,0.333 4.68,0.866 l 3.09,-3 c -2.33,-1.2 -4.95,-1.866 -7.77,-1.866 -9.07,0 -16.5,7.2 -16.5,16 0,8.8 7.43,16 16.5,16 9.08,0 16.5,-7.2 16.5,-16 0,-2.734 -0.68,-5.267 -1.92,-7.534 z"
         fill="#333f50"
         fill-rule="evenodd"
         id="path18" />
      <path
         d="m 1265.37,579.371 c -1.07,-1.091 -2.68,-1.636 -4.15,-1.295 l -3.02,-2.999 c 2.68,-3.544 4.16,-7.907 4.16,-12.405 0.06,-11.383 -8.98,-20.584 -20.1,-20.653 -11.12,-0.068 -20.16,9.134 -20.23,20.448 -0.06,11.315 8.98,20.517 20.1,20.585 4.42,0 8.77,-1.5 12.32,-4.226 l 2.95,2.999 c -0.27,1.568 0.2,3.135 1.27,4.294 l 8.38,8.52 c 1.81,1.84 4.82,1.84 6.63,0 1.81,-1.841 1.81,-4.908 0,-6.748 z m -23.11,-0.409 c -8.91,0 -16.07,-7.293 -16.07,-16.358 0,-9.066 7.16,-16.359 16.07,-16.359 8.91,0 16.08,7.293 16.08,16.359 0,8.997 -7.24,16.358 -16.08,16.358 z"
         fill="#333f50"
         fill-rule="evenodd"
         id="path19" />
      <path
         d="m 1256.97,561.642 h -3.84 c -0.33,0.069 -0.67,0.278 -0.87,0.556 l -2.56,2.851 -2.15,-7.718 c -0.2,-0.626 -0.88,-1.043 -1.48,-0.835 -0.34,0.139 -0.68,0.348 -0.81,0.765 l -4.04,11.056 -2.76,-15.298 c -0.13,-0.695 -0.74,-1.112 -1.34,-0.973 -0.41,0.069 -0.74,0.417 -0.94,0.834 l -2.9,8.762 h -5.25 v 2.781 h 6.13 c 0.54,-0.069 1.01,-0.486 1.14,-1.043 l 1.68,-5.284 2.69,14.95 c 0.07,0.556 0.54,0.973 1.08,0.973 h 0.14 c 0.47,0 0.94,-0.278 1.14,-0.764 l 4.31,-11.683 1.75,6.259 c 0.2,0.626 0.8,1.043 1.48,0.834 0.2,-0.069 0.4,-0.208 0.53,-0.348 l 3.64,-3.894 h 3.29 v -2.781 z"
         fill="#333f50"
         fill-rule="evenodd"
         id="path20" />
      <path
         d="m 1264.36,798.916 c -2.55,10e-4 -4.78,1.707 -5.41,4.146 h -8.58 v -11.237 c 2.99,-0.773 4.78,-3.793 4,-6.748 -0.51,-1.935 -2.04,-3.445 -4,-3.951 v -14.002 h -11.38 c -0.78,-2.958 -3.83,-4.735 -6.82,-3.972 -3,0.764 -4.8,3.78 -4.02,6.736 0.77,2.957 3.82,4.734 6.82,3.971 1.97,-0.503 3.51,-2.023 4.02,-3.971 h 8.58 v 11.238 c -2.99,0.772 -4.79,3.793 -4,6.747 0.51,1.935 2.04,3.446 4,3.952 v 14.001 h 11.38 c 0.77,2.958 3.82,4.736 6.82,3.972 2.99,-0.763 4.79,-3.779 4.02,-6.736 -0.64,-2.442 -2.87,-4.148 -5.43,-4.146 z"
         fill="#333f50"
         fill-rule="evenodd"
         id="path21" />
      <text
         font-family="Arial, Arial_MSFontService, sans-serif"
         font-weight="400"
         font-size="27px"
         transform="translate(1013.94,438)"
         id="text21">Data <tspan
   font-size="27px"
   x="64.708"
   y="0"
   id="tspan21">transformation</tspan></text>
      <path
         d="m 1383.47,447.475 h 148 v 411 h -148 z"
         stroke="#000000"
         stroke-width="0.37622"
         stroke-miterlimit="8"
         fill="none"
         fill-rule="evenodd"
         id="path22" />
      <text
         font-family="Arial, Arial_MSFontService, sans-serif"
         font-weight="400"
         font-size="21px"
         transform="translate(1394.14,604)"
         id="text28">Storage <tspan
   font-size="21px"
   x="0"
   y="26"
   id="tspan22">(organizing)</tspan><tspan
   font-size="18px"
   x="0"
   y="48"
   id="tspan23">•</tspan><tspan
   font-size="18px"
   x="33.858898"
   y="48"
   id="tspan24">File</tspan><tspan
   font-size="18px"
   x="0"
   y="70"
   id="tspan25">•</tspan><tspan
   font-size="18px"
   x="33.858898"
   y="70"
   id="tspan26">Object</tspan><tspan
   font-size="18px"
   x="0"
   y="92"
   id="tspan27">•</tspan><tspan
   font-size="18px"
   x="33.858898"
   y="92"
   id="tspan28">DB</tspan></text>
      <path
         d="m 1517.97,459.474 c 0,3.038 -8.28,5.501 -18.5,5.501 -10.22,0 -18.5,-2.463 -18.5,-5.501 0,-3.038 8.28,-5.5 18.5,-5.5 10.22,0 18.5,2.462 18.5,5.5 z"
         fill="#333f50"
         fill-rule="evenodd"
         id="path28" />
      <path
         d="m 1512.68,472.642 c -0.79,0 -1.32,-0.534 -1.32,-1.334 0,-0.799 0.53,-1.333 1.32,-1.333 0.8,0 1.32,0.534 1.32,1.333 0,0.8 -0.52,1.334 -1.32,1.334 z m -13.21,-5.333 c -10.18,0 -18.5,-2.401 -18.5,-5.334 v 10.667 c 0,2.933 8.32,5.333 18.5,5.333 10.17,0 18.5,-2.4 18.5,-5.333 v -10.667 c 0,2.933 -8.33,5.334 -18.5,5.334 z"
         fill="#333f50"
         fill-rule="evenodd"
         id="path29" />
      <path
         d="m 1512.68,486.307 c -0.79,0 -1.32,-0.568 -1.32,-1.417 0,-0.85 0.53,-1.416 1.32,-1.416 0.8,0 1.32,0.566 1.32,1.416 0,0.849 -0.52,1.417 -1.32,1.417 z m -13.21,-5.667 c -10.18,0 -18.5,-2.55 -18.5,-5.666 v 11.333 c 0,3.116 8.32,5.667 18.5,5.667 10.17,0 18.5,-2.551 18.5,-5.667 v -11.333 c 0,3.116 -8.33,5.666 -18.5,5.666 z"
         fill="#333f50"
         fill-rule="evenodd"
         id="path30" />
      <path
         d="m 1512.68,499.642 c -0.79,0 -1.32,-0.534 -1.32,-1.334 0,-0.799 0.53,-1.333 1.32,-1.333 0.8,0 1.32,0.534 1.32,1.333 0,0.8 -0.52,1.334 -1.32,1.334 z m -13.21,-5.333 c -10.18,0 -18.5,-2.401 -18.5,-5.334 v 10.667 c 0,2.933 8.32,5.333 18.5,5.333 10.17,0 18.5,-2.4 18.5,-5.333 v -10.667 c 0,2.933 -8.33,5.334 -18.5,5.334 z"
         fill="#333f50"
         fill-rule="evenodd"
         id="path31" />
      <path
         d="m 1531.47,447.475 h 179 v 411 h -179 z"
         stroke="#000000"
         stroke-width="0.37622"
         stroke-miterlimit="8"
         fill="none"
         fill-rule="evenodd"
         id="path32" />
      <text
         font-family="Arial, Arial_MSFontService, sans-serif"
         font-weight="400"
         font-size="21px"
         transform="translate(1541.53,626)"
         id="text35">Security<tspan
   font-size="18px"
   x="0"
   y="23"
   id="tspan32">•</tspan><tspan
   font-size="18px"
   x="33.858898"
   y="23"
   id="tspan33">Access Control</tspan><tspan
   font-size="18px"
   x="0"
   y="45"
   id="tspan34">•</tspan><tspan
   font-size="18px"
   x="33.858898"
   y="45"
   id="tspan35">Authorization</tspan></text>
      <path
         d="m 1696.04,487.664 c -1.77,-1.512 -3.74,-2.744 -5.85,-3.657 l -2.71,3.623 0.76,0.541 0.97,0.685 -0.55,1.137 -6.57,13.014 h 16 v -10.959 c -0.03,-1.716 -0.79,-3.326 -2.05,-4.384 z"
         fill="#333f50"
         fill-rule="evenodd"
         id="path35" />
      <path
         d="m 1665.12,489.932 -0.59,-1.108 1.03,-0.688 0.81,-0.544 -2.84,-3.585 c -2.2,0.971 -4.3,2.173 -6.26,3.585 -1.34,1.063 -2.14,2.68 -2.17,4.404 v 11.011 h 17 z"
         fill="#333f50"
         fill-rule="evenodd"
         id="path36" />
      <path
         d="m 1690.17,463.444 h -2.93 l -3.03,-8.879 c -0.22,-1.579 -1.7,-2.688 -3.32,-2.477 -0.66,0.087 -1.28,0.394 -1.74,0.87 v 0 c -1.21,1.258 -3.24,1.319 -4.53,0.137 -0.02,-0.025 -0.05,-0.05 -0.08,-0.076 l -0.2,-0.202 c -1.18,-1.107 -3.04,-1.076 -4.18,0.068 -0.44,0.451 -0.73,1.031 -0.8,1.653 l -3.44,8.906 h -2.94 c -0.88,-0.017 -1.66,0.579 -1.85,1.425 -0.2,0.963 0.44,1.904 1.43,2.101 0.12,0.024 0.24,0.036 0.36,0.036 h 27.32 c 1,0.02 1.84,-0.761 1.86,-1.745 0,-0.132 -0.01,-0.263 -0.04,-0.392 -0.19,-0.858 -0.99,-1.459 -1.89,-1.425 z"
         fill="#333f50"
         fill-rule="evenodd"
         id="path37" />
      <path
         d="m 1678.94,485.006 1.17,-4 h -6 l 1.16,4 z"
         fill="#333f50"
         fill-rule="evenodd"
         id="path38" />
      <path
         d="m 1691.1,481.247 -7.74,-4.699 c 2.52,-1.76 4.18,-4.499 4.57,-7.541 h -21.67 c 0.39,3.045 2.05,5.786 4.57,7.548 l -7.73,4.692 5.46,6.8 -2.05,1.359 7.35,13.601 h 1.53 v 0 h 3.41 v 0 h 1.53 l 7.35,-13.601 -2.05,-1.359 z m -11.82,18.53 -0.6,-13.26 h -3.17 l -0.6,13.26 -3.41,-22.78 c 3.43,2.033 7.72,2.033 11.15,0 z"
         fill="#333f50"
         fill-rule="evenodd"
         id="path39" />
      <path
         d="m 1710.47,447.475 h 35 v 411 h -35 z"
         stroke="#000000"
         stroke-width="0.37622"
         stroke-miterlimit="8"
         fill="none"
         fill-rule="evenodd"
         id="path40" />
      <text
         font-family="Arial, Arial_MSFontService, sans-serif"
         font-weight="400"
         font-size="27px"
         transform="translate(1477.87,437)"
         id="text40">Supporting services</text>
      <text
         font-family="Arial, Arial_MSFontService, sans-serif"
         font-weight="400"
         font-size="21px"
         transform="rotate(-90,1216.405,-518.405)"
         id="text41">Computing</text>
      <path
         d="m 1745.47,447.475 h 35 v 411 h -35 z"
         stroke="#000000"
         stroke-width="0.37622"
         stroke-miterlimit="8"
         fill="none"
         fill-rule="evenodd"
         id="path41" />
      <text
         font-family="Arial, Arial_MSFontService, sans-serif"
         font-weight="400"
         font-size="21px"
         transform="rotate(-90,1247.42,-523.42)"
         id="text42">Networking, etc.</text>
    </g>
  </g>
</svg>
