<?xml version="1.0" encoding="UTF-8" standalone="no"?>
<!-- Created with Inkscape (http://www.inkscape.org/) -->

<svg
   width="402.16666mm"
   height="205.84583mm"
   viewBox="0 0 402.16667 205.84583"
   version="1.1"
   id="svg1"
   inkscape:version="1.3.2 (091e20e, 2023-11-25, custom)"
   sodipodi:docname="24.svg"
   xmlns:inkscape="http://www.inkscape.org/namespaces/inkscape"
   xmlns:sodipodi="http://sodipodi.sourceforge.net/DTD/sodipodi-0.dtd"
   xmlns="http://www.w3.org/2000/svg"
   xmlns:svg="http://www.w3.org/2000/svg">
  <sodipodi:namedview
     id="namedview1"
     pagecolor="#ffffff"
     bordercolor="#000000"
     borderopacity="0.25"
     inkscape:showpageshadow="2"
     inkscape:pageopacity="0.0"
     inkscape:pagecheckerboard="0"
     inkscape:deskcolor="#d1d1d1"
     inkscape:document-units="mm"
     inkscape:zoom="1.6311518"
     inkscape:cx="270.05457"
     inkscape:cy="284.7681"
     inkscape:window-width="3840"
     inkscape:window-height="2066"
     inkscape:window-x="-11"
     inkscape:window-y="-11"
     inkscape:window-maximized="1"
     inkscape:current-layer="layer1" />
  <defs
     id="defs1">
    <clipPath
       id="clip0">
      <rect
         x="1273"
         y="290"
         width="432"
         height="677"
         id="rect1" />
    </clipPath>
    <clipPath
       id="clip0-1">
      <rect
         x="1243"
         y="288"
         width="463"
         height="677"
         id="rect1-2" />
    </clipPath>
    <clipPath
       id="clip0-0">
      <rect
         x="273"
         y="90"
         width="906"
         height="845"
         id="rect1-0" />
    </clipPath>
    <clipPath
       id="clip0-8">
      <rect
         x="204"
         y="258"
         width="1520"
         height="778"
         id="rect1-8" />
    </clipPath>
    <clipPath
       id="clip1">
      <rect
         x="1486"
         y="866"
         width="63"
         height="63"
         id="rect2" />
    </clipPath>
    <clipPath
       id="clip2">
      <rect
         x="1486"
         y="866"
         width="63"
         height="63"
         id="rect3" />
    </clipPath>
    <clipPath
       id="clip3">
      <rect
         x="1486"
         y="866"
         width="63"
         height="63"
         id="rect4" />
    </clipPath>
    <clipPath
       id="clip4">
      <rect
         x="1324"
         y="819"
         width="62"
         height="62"
         id="rect5" />
    </clipPath>
    <clipPath
       id="clip5">
      <rect
         x="1324"
         y="819"
         width="62"
         height="62"
         id="rect6" />
    </clipPath>
    <clipPath
       id="clip6">
      <rect
         x="1324"
         y="819"
         width="62"
         height="62"
         id="rect7" />
    </clipPath>
    <clipPath
       id="clip7">
      <rect
         x="1437"
         y="813"
         width="63"
         height="62"
         id="rect8" />
    </clipPath>
    <clipPath
       id="clip8">
      <rect
         x="1437"
         y="813"
         width="63"
         height="62"
         id="rect9" />
    </clipPath>
    <clipPath
       id="clip9">
      <rect
         x="1437"
         y="813"
         width="63"
         height="62"
         id="rect10" />
    </clipPath>
    <clipPath
       id="clip10">
      <rect
         x="1370"
         y="866"
         width="62"
         height="62"
         id="rect11" />
    </clipPath>
    <clipPath
       id="clip11">
      <rect
         x="1370"
         y="866"
         width="62"
         height="62"
         id="rect12" />
    </clipPath>
    <clipPath
       id="clip12">
      <rect
         x="1370"
         y="866"
         width="62"
         height="62"
         id="rect13" />
    </clipPath>
  </defs>
  <g
     inkscape:label="Layer 1"
     inkscape:groupmode="layer"
     id="layer1"
     transform="translate(-33.602069,-73.28958)">
    <g
       clip-path="url(#clip0-8)"
       transform="matrix(0.26458333,0,0,0.26458333,-20.37293,5.0270807)"
       id="g89">
      <path
         d="m 205,932.5 c 0,-11.322 339.816,-20.5 759,-20.5 419.18,0 759,9.178 759,20.5 v 82 c 0,11.32 -339.82,20.5 -759,20.5 -419.184,0 -759,-9.18 -759,-20.5 z"
         fill="#333f50"
         fill-rule="evenodd"
         id="path13" />
      <path
         d="m 1723,932.5 c 0,11.322 -339.82,20.5 -759,20.5 -419.184,0 -759,-9.178 -759,-20.5"
         stroke="#262626"
         stroke-width="2"
         stroke-miterlimit="8"
         fill="none"
         fill-rule="evenodd"
         id="path14" />
      <path
         d="m 205,932.5 c 0,-11.322 339.816,-20.5 759,-20.5 419.18,0 759,9.178 759,20.5 v 82 c 0,11.32 -339.82,20.5 -759,20.5 -419.184,0 -759,-9.18 -759,-20.5 z"
         stroke="#262626"
         stroke-width="2"
         stroke-miterlimit="8"
         fill="none"
         fill-rule="evenodd"
         id="path15" />
      <text
         fill="#ffffff"
         font-family="Arial, Arial_MSFontService, sans-serif"
         font-weight="400"
         font-size="36px"
         transform="translate(881.743,997)"
         id="text15">Data Lake</text>
      <rect
         x="273"
         y="258"
         width="432"
         height="677"
         fill="#ffd966"
         fill-opacity="0.4"
         id="rect15" />
      <text
         font-family="Arial, Arial_MSFontService, sans-serif"
         font-weight="400"
         font-size="36px"
         transform="translate(408.714,329)"
         id="text16">Relational</text>
      <rect
         x="747"
         y="258"
         width="432"
         height="677"
         fill="#9dc3e6"
         fill-opacity="0.4"
         id="rect16" />
      <text
         font-family="Arial, Arial_MSFontService, sans-serif"
         font-weight="400"
         font-size="36px"
         transform="translate(904.384,307)"
         id="text17">NoSQL <tspan
   font-size="36px"
   x="-64.669998"
   y="43"
   id="tspan16">(Non relational)</tspan></text>
      <rect
         x="804"
         y="418"
         width="319"
         height="144"
         fill="#00b0f0"
         id="rect17" />
      <text
         font-family="Arial, Arial_MSFontService, sans-serif"
         font-weight="400"
         font-size="16px"
         transform="translate(818.623,439)"
         id="text24">[{<tspan
   font-size="16px"
   x="22.5"
   y="19"
   id="tspan17">&quot;_id&quot;: 1,</tspan><tspan
   font-size="16px"
   x="22.5"
   y="38"
   id="tspan18">“</tspan>firstname<tspan
   font-size="16px"
   x="93.749901"
   y="38"
   id="tspan19">&quot;: “Alice”</tspan><tspan
   font-size="16px"
   x="0"
   y="57"
   id="tspan20">}, {</tspan><tspan
   font-size="16px"
   x="22.5"
   y="76"
   id="tspan21">&quot;_id&quot;: 2,</tspan><tspan
   font-size="16px"
   x="22.5"
   y="96"
   id="tspan22">“name&quot;: “Bob”</tspan><tspan
   font-size="16px"
   x="0"
   y="115"
   id="tspan23">}]</tspan><tspan
   font-size="28px"
   x="161.35001"
   y="109"
   id="tspan24">Document</tspan></text>
      <rect
         x="803"
         y="580"
         width="320"
         height="100"
         fill="#00b0f0"
         id="rect24" />
      <text
         font-family="Arial, Arial_MSFontService, sans-serif"
         font-weight="400"
         font-size="16px"
         transform="translate(817.058,608)"
         id="text30">[<tspan
   font-size="16px"
   x="18"
   y="19"
   id="tspan25">(“k1”, “v1),</tspan><tspan
   font-size="16px"
   x="18"
   y="38"
   id="tspan26">(“k2”, “v2)</tspan><tspan
   font-size="16px"
   x="0"
   y="57"
   id="tspan27">]</tspan><tspan
   font-size="28px"
   x="165.944"
   y="58"
   id="tspan28">Key</tspan><tspan
   font-size="28px"
   x="214.194"
   y="58"
   id="tspan29">-</tspan><tspan
   font-size="28px"
   x="223.444"
   y="58"
   id="tspan30">value</tspan></text>
      <rect
         x="802"
         y="695"
         width="321"
         height="100"
         fill="#00b0f0"
         id="rect30" />
      <text
         font-family="Arial, Arial_MSFontService, sans-serif"
         font-weight="400"
         font-size="28px"
         transform="translate(1030.21,781)"
         id="text31">Graph</text>
      <path
         d="m 823,719 c 0,-3.866 3.134,-7 7,-7 3.866,0 7,3.134 7,7 0,3.866 -3.134,7 -7,7 -3.866,0 -7,-3.134 -7,-7 z"
         stroke="#203864"
         stroke-width="2"
         stroke-miterlimit="8"
         fill="#002060"
         fill-rule="evenodd"
         id="path31" />
      <path
         d="m 844,760 c 0,-3.866 3.134,-7 7,-7 3.866,0 7,3.134 7,7 0,3.866 -3.134,7 -7,7 -3.866,0 -7,-3.134 -7,-7 z"
         stroke="#203864"
         stroke-width="2"
         stroke-miterlimit="8"
         fill="#002060"
         fill-rule="evenodd"
         id="path32" />
      <path
         d="m 880,726 c 0,-3.866 3.134,-7 7,-7 3.866,0 7,3.134 7,7 0,3.866 -3.134,7 -7,7 -3.866,0 -7,-3.134 -7,-7 z"
         stroke="#203864"
         stroke-width="2"
         stroke-miterlimit="8"
         fill="#002060"
         fill-rule="evenodd"
         id="path33" />
      <path
         d="m 907,767 c 0,-3.866 3.358,-7 7.5,-7 4.142,0 7.5,3.134 7.5,7 0,3.866 -3.358,7 -7.5,7 -4.142,0 -7.5,-3.134 -7.5,-7 z"
         stroke="#203864"
         stroke-width="2"
         stroke-miterlimit="8"
         fill="#002060"
         fill-rule="evenodd"
         id="path34" />
      <path
         d="m 949,736 c 0,-3.866 3.358,-7 7.5,-7 4.142,0 7.5,3.134 7.5,7 0,3.866 -3.358,7 -7.5,7 -4.142,0 -7.5,-3.134 -7.5,-7 z"
         stroke="#203864"
         stroke-width="2"
         stroke-miterlimit="8"
         fill="#002060"
         fill-rule="evenodd"
         id="path35" />
      <path
         d="m 835.5,724.5 10.807,30.945"
         stroke="#203864"
         stroke-miterlimit="8"
         fill="none"
         fill-rule="evenodd"
         id="path36" />
      <path
         d="M 0,0 31.8688,20.7946"
         stroke="#203864"
         stroke-miterlimit="8"
         fill="none"
         fill-rule="evenodd"
         transform="matrix(-1,0,0,1,952.369,741.5)"
         id="path37" />
      <path
         d="m 892.5,731.5 17.507,30.945"
         stroke="#203864"
         stroke-miterlimit="8"
         fill="none"
         fill-rule="evenodd"
         id="path38" />
      <path
         d="M 0.388755,-0.314435 17.4237,20.7468 16.6462,21.3757 -0.388755,0.314435 Z M 20.4422,15.733 23.3236,28.8364 11.1121,23.2795 Z"
         fill="#203864"
         transform="matrix(1,0,0,-1,858.5,760.336)"
         id="path39" />
      <path
         d="m 858.573,760.005 39.011,5.744 -0.146,0.989 -39.011,-5.743 z m 37.833,0.011 10.998,7.684 -12.746,4.188 z"
         fill="#203864"
         id="path40" />
      <path
         d="m 316,715 c 0,-11.046 23.281,-20 52,-20 28.719,0 52,8.954 52,20 v 80 c 0,11.046 -23.281,20 -52,20 -28.719,0 -52,-8.954 -52,-20 z"
         fill="#ffc000"
         fill-rule="evenodd"
         id="path41" />
      <path
         d="m 420,715 c 0,11.046 -23.281,20 -52,20 -28.719,0 -52,-8.954 -52,-20"
         stroke="#bf9000"
         stroke-width="2"
         stroke-miterlimit="8"
         fill="none"
         fill-rule="evenodd"
         id="path42" />
      <path
         d="m 316,715 c 0,-11.046 23.281,-20 52,-20 28.719,0 52,8.954 52,20 v 80 c 0,11.046 -23.281,20 -52,20 -28.719,0 -52,-8.954 -52,-20 z"
         stroke="#bf9000"
         stroke-width="2"
         stroke-miterlimit="8"
         fill="none"
         fill-rule="evenodd"
         id="path43" />
      <path
         d="m 443,715 c 0,-11.046 23.505,-20 52.5,-20 28.995,0 52.5,8.954 52.5,20 v 80 c 0,11.046 -23.505,20 -52.5,20 -28.995,0 -52.5,-8.954 -52.5,-20 z"
         fill="#ffc000"
         fill-rule="evenodd"
         id="path44" />
      <path
         d="m 548,715 c 0,11.046 -23.505,20 -52.5,20 -28.995,0 -52.5,-8.954 -52.5,-20"
         stroke="#bf9000"
         stroke-width="2"
         stroke-miterlimit="8"
         fill="none"
         fill-rule="evenodd"
         id="path45" />
      <path
         d="m 443,715 c 0,-11.046 23.505,-20 52.5,-20 28.995,0 52.5,8.954 52.5,20 v 80 c 0,11.046 -23.505,20 -52.5,20 -28.995,0 -52.5,-8.954 -52.5,-20 z"
         stroke="#bf9000"
         stroke-width="2"
         stroke-miterlimit="8"
         fill="none"
         fill-rule="evenodd"
         id="path46" />
      <path
         d="m 571,715 c 0,-11.046 23.505,-20 52.5,-20 28.995,0 52.5,8.954 52.5,20 v 80 c 0,11.046 -23.505,20 -52.5,20 -28.995,0 -52.5,-8.954 -52.5,-20 z"
         fill="#ffc000"
         fill-rule="evenodd"
         id="path47" />
      <path
         d="m 676,715 c 0,11.046 -23.505,20 -52.5,20 -28.995,0 -52.5,-8.954 -52.5,-20"
         stroke="#bf9000"
         stroke-width="2"
         stroke-miterlimit="8"
         fill="none"
         fill-rule="evenodd"
         id="path48" />
      <path
         d="m 571,715 c 0,-11.046 23.505,-20 52.5,-20 28.995,0 52.5,8.954 52.5,20 v 80 c 0,11.046 -23.505,20 -52.5,20 -28.995,0 -52.5,-8.954 -52.5,-20 z"
         stroke="#bf9000"
         stroke-width="2"
         stroke-miterlimit="8"
         fill="none"
         fill-rule="evenodd"
         id="path49" />
      <text
         font-family="Arial, Arial_MSFontService, sans-serif"
         font-weight="400"
         font-size="28px"
         transform="translate(360.607,849)"
         id="text49">Operational (relational)<tspan
   font-size="28px"
   x="77.5"
   y="34"
   id="tspan49">databases</tspan></text>
      <path
         d="M 0,62.5 H 11.75 V 0 h 23.5 V 62.5 H 47 L 23.5,86 Z"
         stroke="#507e32"
         stroke-width="2"
         stroke-miterlimit="8"
         fill="#70ad47"
         fill-rule="evenodd"
         transform="matrix(1,0,0,-1,479,666)"
         id="path50" />
      <rect
         x="417"
         y="429.25"
         width="131.75"
         height="117.75"
         fill="#70ad47"
         id="rect50" />
      <path
         d="M 548.75,429.25 588,390 V 507.75 L 548.75,547 Z"
         fill="#5a8b39"
         fill-rule="evenodd"
         id="path51" />
      <path
         d="M 417,429.25 456.25,390 H 588 l -39.25,39.25 z"
         fill="#8cbd6b"
         fill-rule="evenodd"
         id="path52" />
      <path
         d="M 417,429.25 456.25,390 H 588 V 507.75 L 548.75,547 H 417 Z m 0,0 H 548.75 L 588,390 m -39.25,39.25 V 547"
         stroke="#507e32"
         stroke-width="2"
         stroke-miterlimit="8"
         fill="none"
         fill-rule="evenodd"
         id="path53" />
      <text
         fill="#ffffff"
         font-family="Arial, Arial_MSFontService, sans-serif"
         font-weight="400"
         font-size="36px"
         transform="translate(439.846,487)"
         id="text54">DWH<tspan
   font-size="24px"
   x="-5.6199999"
   y="32"
   id="tspan53">(ROLAP)</tspan><tspan
   fill="#000000"
   font-size="28px"
   x="82.185699"
   y="153"
   id="tspan54">ETL</tspan></text>
      <rect
         x="1217"
         y="724"
         width="432"
         height="211"
         fill="#c9c9c9"
         fill-opacity="0.4"
         id="rect54" />
      <text
         font-family="Arial, Arial_MSFontService, sans-serif"
         font-weight="400"
         font-size="36px"
         transform="translate(1396.68,778)"
         id="text55">Raw</text>
      <g
         clip-path="url(#clip1)"
         id="g63">
        <g
           clip-path="url(#clip2)"
           id="g62">
          <g
             clip-path="url(#clip3)"
             id="g61">
            <path
               d="m 1504.38,893.562 h 26.24 v 1.313 h -26.24 z"
               id="path55" />
            <path
               d="m 1504.38,888.312 h 12.46 v 1.313 h -12.46 z"
               id="path56" />
            <path
               d="m 1504.38,898.812 h 26.24 v 1.313 h -26.24 z"
               id="path57" />
            <path
               d="m 1504.38,904.062 h 26.24 v 1.313 h -26.24 z"
               id="path58" />
            <path
               d="m 1504.38,909.312 h 26.24 v 1.313 h -26.24 z"
               id="path59" />
            <path
               d="m 1504.38,914.562 h 26.24 v 1.313 h -26.24 z"
               id="path60" />
            <path
               d="m 1497.81,871.25 v 52.5 h 39.38 v -38.334 l -14.17,-14.166 z m 25.61,2.252 11.52,11.518 c 0,0.003 0,0.007 0,0.009 -0.01,0.002 -0.01,0.002 -0.01,0.002 h -11.52 v -11.525 c 0,-0.003 0,-0.006 0,-0.006 0,0 0.01,0 0.01,0.002 z m -24.3,48.936 v -49.876 h 22.97 v 13.782 h 13.79 v 36.094 z"
               id="path61" />
          </g>
        </g>
      </g>
      <g
         clip-path="url(#clip4)"
         id="g71">
        <g
           clip-path="url(#clip5)"
           id="g70">
          <g
             clip-path="url(#clip6)"
             id="g69">
            <path
               d="m 1342.08,846.125 h 25.84 v 1.292 h -25.84 z"
               id="path63" />
            <path
               d="m 1342.08,840.958 h 12.27 v 1.292 h -12.27 z"
               id="path64" />
            <path
               d="m 1342.08,851.292 h 25.84 v 1.291 h -25.84 z"
               id="path65" />
            <path
               d="m 1342.08,856.458 h 25.84 v 1.292 h -25.84 z"
               id="path66" />
            <path
               d="m 1342.08,861.625 h 25.84 v 1.292 h -25.84 z"
               id="path67" />
            <path
               d="m 1342.08,866.792 h 25.84 v 1.291 h -25.84 z"
               id="path68" />
            <path
               d="m 1335.62,824.167 v 51.666 h 38.76 v -37.725 l -13.95,-13.941 z m 25.2,2.216 11.34,11.335 c 0,0.003 0,0.007 0,0.009 0,10e-4 0,0.002 -0.01,0.002 h -11.34 v -11.342 c 0,-0.004 0.01,-0.006 0.01,-0.006 z m -23.9,48.159 v -49.084 h 22.6 v 13.563 h 13.56 v 35.521 z"
               id="path69" />
          </g>
        </g>
      </g>
      <g
         clip-path="url(#clip7)"
         id="g79">
        <g
           clip-path="url(#clip8)"
           id="g78">
          <g
             clip-path="url(#clip9)"
             id="g77">
            <path
               d="m 18.0833,27.125 h 25.8334 v 1.2917 H 18.0833 Z"
               transform="matrix(1.01613,0,0,1,1437,813)"
               id="path71" />
            <path
               d="M 18.0833,21.9583 H 30.3542 V 23.25 H 18.0833 Z"
               transform="matrix(1.01613,0,0,1,1437,813)"
               id="path72" />
            <path
               d="m 18.0833,32.2917 h 25.8334 v 1.2916 H 18.0833 Z"
               transform="matrix(1.01613,0,0,1,1437,813)"
               id="path73" />
            <path
               d="M 18.0833,37.4583 H 43.9167 V 38.75 H 18.0833 Z"
               transform="matrix(1.01613,0,0,1,1437,813)"
               id="path74" />
            <path
               d="m 18.0833,42.625 h 25.8334 v 1.2917 H 18.0833 Z"
               transform="matrix(1.01613,0,0,1,1437,813)"
               id="path75" />
            <path
               d="m 18.0833,47.7917 h 25.8334 v 1.2916 H 18.0833 Z"
               transform="matrix(1.01613,0,0,1,1437,813)"
               id="path76" />
            <path
               d="M 11.625,5.16667 V 56.8333 h 38.75 V 19.1076 L 36.434,5.16667 Z M 36.8235,7.38252 48.1591,18.7182 c 0.0026,0.0025 0.0025,0.0066 0,0.0091 -0.0012,0.0012 -0.0028,0.0019 -0.0045,0.0019 H 36.8125 V 7.38704 c 1e-4,-0.00355 0.003,-0.00639 0.0065,-0.00639 0.0017,6e-5 0.0033,7.1e-4 0.0045,0.00187 z M 12.9167,55.5417 V 6.45833 H 35.5208 V 20.0208 h 13.5625 v 35.5209 z"
               transform="matrix(1.01613,0,0,1,1437,813)"
               id="path77" />
          </g>
        </g>
      </g>
      <path
         d="M 1458,683.5 1429.5,712 1401,683.5 h 14.25 V 360 h 28.5 v 323.5 z"
         fill="#333f50"
         fill-rule="evenodd"
         id="path79" />
      <text
         fill="#ffffff"
         font-family="Calibri, Calibri_MSFontService, sans-serif"
         font-weight="400"
         font-size="36px"
         transform="rotate(90,518.055,899.055)"
         id="text79">Storage of Raw Data</text>
      <g
         clip-path="url(#clip10)"
         id="g88">
        <g
           clip-path="url(#clip11)"
           id="g87">
          <g
             clip-path="url(#clip12)"
             id="g86">
            <path
               d="m 1388.08,893.125 h 25.84 v 1.292 h -25.84 z"
               id="path80" />
            <path
               d="m 1388.08,887.958 h 12.27 v 1.292 h -12.27 z"
               id="path81" />
            <path
               d="m 1388.08,898.292 h 25.84 v 1.291 h -25.84 z"
               id="path82" />
            <path
               d="m 1388.08,903.458 h 25.84 v 1.292 h -25.84 z"
               id="path83" />
            <path
               d="m 1388.08,908.625 h 25.84 v 1.292 h -25.84 z"
               id="path84" />
            <path
               d="m 1388.08,913.792 h 25.84 v 1.291 h -25.84 z"
               id="path85" />
            <path
               d="m 1381.62,871.167 v 51.666 h 38.76 v -37.725 l -13.95,-13.941 z m 25.2,2.216 11.34,11.335 c 0,0.003 0,0.007 0,0.009 0,10e-4 0,0.002 -0.01,0.002 h -11.34 v -11.342 c 0,-0.004 0.01,-0.006 0.01,-0.006 z m -23.9,48.159 v -49.084 h 22.6 v 13.563 h 13.56 v 35.521 z"
               id="path86" />
          </g>
        </g>
      </g>
    </g>
  </g>
</svg>
