<?xml version="1.0" encoding="UTF-8" standalone="no"?>
<!-- Created with Inkscape (http://www.inkscape.org/) -->

<svg
   width="312.73749mm"
   height="73.289581mm"
   viewBox="0 0 312.7375 73.289583"
   version="1.1"
   id="svg1"
   inkscape:version="1.3.2 (091e20e, 2023-11-25, custom)"
   sodipodi:docname="24.svg"
   xmlns:inkscape="http://www.inkscape.org/namespaces/inkscape"
   xmlns:sodipodi="http://sodipodi.sourceforge.net/DTD/sodipodi-0.dtd"
   xmlns="http://www.w3.org/2000/svg"
   xmlns:svg="http://www.w3.org/2000/svg">
  <sodipodi:namedview
     id="namedview1"
     pagecolor="#ffffff"
     bordercolor="#000000"
     borderopacity="0.25"
     inkscape:showpageshadow="2"
     inkscape:pageopacity="0.0"
     inkscape:pagecheckerboard="0"
     inkscape:deskcolor="#d1d1d1"
     inkscape:document-units="mm"
     inkscape:zoom="1.6311518"
     inkscape:cx="1027.1883"
     inkscape:cy="284.7681"
     inkscape:window-width="3840"
     inkscape:window-height="2066"
     inkscape:window-x="-11"
     inkscape:window-y="-11"
     inkscape:window-maximized="1"
     inkscape:current-layer="layer1" />
  <defs
     id="defs1">
    <clipPath
       id="clip0">
      <rect
         x="1273"
         y="290"
         width="432"
         height="677"
         id="rect1" />
    </clipPath>
    <clipPath
       id="clip0-1">
      <rect
         x="1243"
         y="288"
         width="463"
         height="677"
         id="rect1-2" />
    </clipPath>
    <clipPath
       id="clip0-0">
      <rect
         x="273"
         y="90"
         width="906"
         height="845"
         id="rect1-0" />
    </clipPath>
    <clipPath
       id="clip0-8">
      <rect
         x="204"
         y="258"
         width="1520"
         height="778"
         id="rect1-8" />
    </clipPath>
    <clipPath
       id="clip1">
      <rect
         x="1486"
         y="866"
         width="63"
         height="63"
         id="rect2" />
    </clipPath>
    <clipPath
       id="clip2">
      <rect
         x="1486"
         y="866"
         width="63"
         height="63"
         id="rect3" />
    </clipPath>
    <clipPath
       id="clip3">
      <rect
         x="1486"
         y="866"
         width="63"
         height="63"
         id="rect4" />
    </clipPath>
    <clipPath
       id="clip4">
      <rect
         x="1324"
         y="819"
         width="62"
         height="62"
         id="rect5" />
    </clipPath>
    <clipPath
       id="clip5">
      <rect
         x="1324"
         y="819"
         width="62"
         height="62"
         id="rect6" />
    </clipPath>
    <clipPath
       id="clip6">
      <rect
         x="1324"
         y="819"
         width="62"
         height="62"
         id="rect7" />
    </clipPath>
    <clipPath
       id="clip7">
      <rect
         x="1437"
         y="813"
         width="63"
         height="62"
         id="rect8" />
    </clipPath>
    <clipPath
       id="clip8">
      <rect
         x="1437"
         y="813"
         width="63"
         height="62"
         id="rect9" />
    </clipPath>
    <clipPath
       id="clip9">
      <rect
         x="1437"
         y="813"
         width="63"
         height="62"
         id="rect10" />
    </clipPath>
    <clipPath
       id="clip10">
      <rect
         x="1370"
         y="866"
         width="62"
         height="62"
         id="rect11" />
    </clipPath>
    <clipPath
       id="clip11">
      <rect
         x="1370"
         y="866"
         width="62"
         height="62"
         id="rect12" />
    </clipPath>
    <clipPath
       id="clip12">
      <rect
         x="1370"
         y="866"
         width="62"
         height="62"
         id="rect13" />
    </clipPath>
    <clipPath
       id="clip0-87">
      <rect
         x="412"
         y="351"
         width="1184"
         height="278"
         id="rect1-6" />
    </clipPath>
  </defs>
  <g
     inkscape:label="Layer 1"
     inkscape:groupmode="layer"
     id="layer1"
     transform="translate(166.68752,-73.289579)">
    <g
       clip-path="url(#clip0-87)"
       transform="matrix(0.26458333,0,0,0.26458333,-275.69585,-19.843753)"
       id="g28">
      <rect
         x="412"
         y="352"
         width="1182"
         height="277"
         fill="#e7e6e6"
         id="rect2-5" />
      <text
         font-family="Arial, Arial_MSFontService, sans-serif"
         font-weight="400"
         font-size="27px"
         transform="translate(1454.85,386)"
         id="text6">Storage .<tspan
   font-size="27px"
   x="-34.5"
   y="33"
   id="tspan2">Resources .</tspan><tspan
   font-size="27px"
   x="-37.5"
   y="65"
   id="tspan3">Application .</tspan><tspan
   font-size="27px"
   x="46.5"
   y="97"
   id="tspan4">GUI .</tspan><tspan
   font-size="27px"
   x="-36"
   y="130"
   id="tspan5">Messaging .</tspan><tspan
   font-size="27px"
   x="-67.5"
   y="162"
   id="tspan6">Orchestration .</tspan></text>
      <path
         d="m 620,575.667 c 0,-4.235 3.432,-7.667 7.667,-7.667 h 329.666 c 4.235,0 7.667,3.432 7.667,7.667 v 30.666 c 0,4.235 -3.432,7.667 -7.667,7.667 H 627.667 C 623.432,614 620,610.568 620,606.333 Z"
         stroke="#507e32"
         stroke-width="2"
         stroke-miterlimit="8"
         fill="#70ad47"
         fill-rule="evenodd"
         id="path6" />
      <text
         fill="#ffffff"
         font-family="Arial, Arial_MSFontService, sans-serif"
         font-weight="400"
         font-size="24px"
         transform="translate(760.151,600)"
         id="text7">HDFS</text>
      <path
         d="m 712,520.167 c 0,-4.511 3.656,-8.167 8.167,-8.167 h 451.663 c 4.51,0 8.17,3.656 8.17,8.167 v 32.666 c 0,4.511 -3.66,8.167 -8.17,8.167 H 720.167 C 715.656,561 712,557.344 712,552.833 Z"
         stroke="#2e75b6"
         stroke-width="2"
         stroke-miterlimit="8"
         fill="#5b9bd5"
         fill-rule="evenodd"
         id="path7" />
      <text
         fill="#ffffff"
         font-family="Arial, Arial_MSFontService, sans-serif"
         font-weight="400"
         font-size="24px"
         transform="translate(913.779,545)"
         id="text8">YARN</text>
      <path
         d="M 567.167,614 C 562.104,614 558,609.896 558,604.833 V 425.167 c 0,-5.063 4.104,-9.167 9.167,-9.167 h 36.666 c 5.063,0 9.167,4.104 9.167,9.167 v 179.666 c 0,5.063 -4.104,9.167 -9.167,9.167 z"
         stroke="#507e32"
         stroke-width="2"
         stroke-miterlimit="8"
         fill="#70ad47"
         fill-rule="evenodd"
         id="path8" />
      <text
         fill="#ffffff"
         font-family="Arial, Arial_MSFontService, sans-serif"
         font-weight="400"
         font-size="24px"
         transform="rotate(-90,583.13,-11.13)"
         id="text9">Zookeeper</text>
      <path
         d="M 504.167,614 C 499.104,614 495,609.896 495,604.833 V 425.167 c 0,-5.063 4.104,-9.167 9.167,-9.167 h 36.666 c 5.063,0 9.167,4.104 9.167,9.167 v 179.666 c 0,5.063 -4.104,9.167 -9.167,9.167 z"
         stroke="#bc8c00"
         stroke-width="2"
         stroke-miterlimit="8"
         fill="#ffc000"
         fill-rule="evenodd"
         id="path9" />
      <text
         fill="#ffffff"
         font-family="Arial, Arial_MSFontService, sans-serif"
         font-weight="400"
         font-size="24px"
         transform="rotate(-90,538.6,7.4)"
         id="text10">Kafka</text>
      <path
         d="m 722.303,457 148.844,0.441 10.853,4.185 c 0,13.07 0,26.14 0,39.21 l -8.786,5.066 H 815.33 L 809.128,520 781.22,519.78 775.018,505.902 h -51.165 l -10.185,-5.089 c -0.344,-14.318 -0.324,-25.31 -0.668,-39.628 z"
         stroke="#2f528f"
         stroke-width="2"
         stroke-miterlimit="8"
         fill="#4472c4"
         fill-rule="evenodd"
         id="path10" />
      <text
         fill="#ffffff"
         font-family="Arial, Arial_MSFontService, sans-serif"
         font-weight="400"
         font-size="20px"
         transform="translate(741.227,485)"
         id="text11">Map Reduce<tspan
   font-size="14px"
   x="38.5"
   y="19"
   id="tspan10">Batch</tspan></text>
      <path
         d="m 624.789,511 76.624,0.448 5.587,4.251 c 0,13.278 0,26.555 0,39.832 l -4.523,5.147 h -29.798 l -3.193,14.322 -14.367,-0.224 -3.192,-14.098 h -26.34 l -5.243,-5.169 C 620.167,540.963 620.177,529.797 620,515.252 Z"
         stroke="#507e32"
         stroke-width="2"
         stroke-miterlimit="8"
         fill="#70ad47"
         fill-rule="evenodd"
         id="path11" />
      <text
         fill="#ffffff"
         font-family="Arial, Arial_MSFontService, sans-serif"
         font-weight="400"
         font-size="20px"
         transform="translate(629.558,539)"
         id="text12">HBASE<tspan
   font-size="14px"
   x="10.87"
   y="19"
   id="tspan11">NoSQL</tspan></text>
      <path
         d="m 719.055,416 96.881,0.308 7.064,2.923 c 0,9.128 0,18.256 0,27.384 l -5.719,3.539 h -37.676 l -4.036,9.846 -18.165,-0.154 -4.037,-9.692 h -33.303 l -6.629,-3.554 c -0.224,-10 -0.211,-17.677 -0.435,-27.677 z"
         stroke="#2f528f"
         stroke-width="2"
         stroke-miterlimit="8"
         fill="#4472c4"
         fill-rule="evenodd"
         id="path12" />
      <text
         fill="#ffffff"
         font-family="Arial, Arial_MSFontService, sans-serif"
         font-weight="400"
         font-size="20px"
         transform="translate(753.881,443)"
         id="text13">Pig</text>
      <path
         d="m 990.679,457 74.861,0.434 5.46,4.118 c 0,12.863 0,25.725 0,38.588 l -4.42,4.986 h -29.11 l -3.12,13.874 -14.04,-0.217 -3.12,-13.657 h -25.731 l -5.123,-5.008 C 986.163,486.027 986.173,475.21 986,461.119 Z"
         stroke="#2f528f"
         stroke-width="2"
         stroke-miterlimit="8"
         fill="#4472c4"
         fill-rule="evenodd"
         id="path13" />
      <text
         fill="#ffffff"
         font-family="Arial, Arial_MSFontService, sans-serif"
         font-weight="400"
         font-size="20px"
         transform="translate(1007.55,485)"
         id="text15">Flink<tspan
   font-size="14px"
   x="-6.1199999"
   y="19"
   id="tspan13">real</tspan><tspan
   font-size="14px"
   x="17.1299"
   y="19"
   id="tspan14">-</tspan><tspan
   font-size="14px"
   x="21.8799"
   y="19"
   id="tspan15">time</tspan></text>
      <path
         d="m 894.734,457 75.743,0.448 5.523,4.251 c 0,13.278 0,26.555 0,39.832 l -4.471,5.147 H 942.073 L 938.917,521 924.715,520.776 921.56,506.678 h -26.037 l -5.183,-5.169 c -0.175,-14.546 -0.165,-25.712 -0.34,-40.257 z"
         stroke="#2f528f"
         stroke-width="2"
         stroke-miterlimit="8"
         fill="#4472c4"
         fill-rule="evenodd"
         id="path15" />
      <text
         fill="#ffffff"
         font-family="Arial, Arial_MSFontService, sans-serif"
         font-weight="400"
         font-size="20px"
         transform="translate(906.885,484)"
         id="text16">Spark<tspan
   font-size="14px"
   x="3"
   y="19"
   id="tspan16">in mem</tspan></text>
      <path
         d="m 624.734,471 75.743,0.301 5.523,2.856 c 0,8.921 0,17.842 0,26.763 l -4.471,3.458 h -29.456 l -3.156,9.622 -14.202,-0.15 -3.155,-9.472 h -26.037 l -5.183,-3.474 c -0.175,-9.772 -0.165,-17.275 -0.34,-27.047 z"
         stroke="#507e32"
         stroke-width="2"
         stroke-miterlimit="8"
         fill="#70ad47"
         fill-rule="evenodd"
         id="path16" />
      <text
         fill="#ffffff"
         font-family="Arial, Arial_MSFontService, sans-serif"
         font-weight="400"
         font-size="20px"
         transform="translate(627.18,497)"
         id="text17">Phoenix</text>
      <path
         d="m 1084.56,457 88.95,0.448 6.49,4.251 c 0,13.278 0,26.555 0,39.832 l -5.25,5.147 h -34.59 l -3.71,14.322 -16.68,-0.224 -3.71,-14.098 h -30.57 l -6.09,-5.169 c -0.21,-14.546 -0.19,-25.712 -0.4,-40.257 z"
         stroke="#2f528f"
         stroke-width="2"
         stroke-miterlimit="8"
         fill="#4472c4"
         fill-rule="evenodd"
         id="path17" />
      <text
         fill="#ffffff"
         font-family="Arial, Arial_MSFontService, sans-serif"
         font-weight="400"
         font-size="20px"
         transform="translate(1099.62,482)"
         id="text18">Others<tspan
   font-size="20px"
   x="19.879999"
   y="24"
   id="tspan17">…</tspan></text>
      <path
         d="m 621,374.167 c 0,-3.958 3.209,-7.167 7.167,-7.167 h 305.666 c 3.958,0 7.167,3.209 7.167,7.167 v 28.666 c 0,3.958 -3.209,7.167 -7.167,7.167 H 628.167 C 624.209,410 621,406.791 621,402.833 Z"
         stroke="#44546a"
         stroke-width="2"
         stroke-miterlimit="8"
         fill="#2f5597"
         fill-rule="evenodd"
         id="path18" />
      <text
         fill="#ffffff"
         font-family="Arial, Arial_MSFontService, sans-serif"
         font-weight="400"
         font-size="24px"
         transform="translate(759.11,397)"
         id="text19">Hue</text>
      <path
         d="m 965,575.667 c 0,-4.234 3.433,-7.667 7.667,-7.667 h 330.663 c 4.24,0 7.67,3.433 7.67,7.667 v 30.666 c 0,4.234 -3.43,7.667 -7.67,7.667 H 972.667 C 968.433,614 965,610.567 965,606.333 Z"
         stroke="#507e32"
         stroke-width="2"
         stroke-miterlimit="8"
         fill="#70ad47"
         fill-rule="evenodd"
         id="path19" />
      <text
         fill="#ffffff"
         font-family="Arial, Arial_MSFontService, sans-serif"
         font-weight="400"
         font-size="24px"
         transform="translate(1099.05,600)"
         id="text20">NoSQL</text>
      <path
         d="m 1189,474.334 c 0,-9.573 7.76,-17.334 17.33,-17.334 h 86.34 c 9.57,0 17.33,7.761 17.33,17.334 v 69.332 c 0,9.573 -7.76,17.334 -17.33,17.334 h -86.34 c -9.57,0 -17.33,-7.761 -17.33,-17.334 z"
         stroke="#2f528f"
         stroke-width="2"
         stroke-miterlimit="8"
         fill="#4472c4"
         fill-rule="evenodd"
         id="path20" />
      <text
         fill="#ffffff"
         font-family="Arial, Arial_MSFontService, sans-serif"
         font-weight="400"
         font-size="24px"
         transform="translate(1213.6,509)"
         id="text21">Impala<tspan
   font-size="14px"
   x="20.75"
   y="19"
   id="tspan20">MPP</tspan></text>
      <path
         d="M 440.167,616 C 435.104,616 431,611.896 431,606.833 V 427.167 c 0,-5.063 4.104,-9.167 9.167,-9.167 h 36.666 c 5.063,0 9.167,4.104 9.167,9.167 v 179.666 c 0,5.063 -4.104,9.167 -9.167,9.167 z"
         stroke="#4a206a"
         stroke-width="2"
         stroke-miterlimit="8"
         fill="#7030a0"
         fill-rule="evenodd"
         id="path21" />
      <text
         fill="#ffffff"
         font-family="Arial, Arial_MSFontService, sans-serif"
         font-weight="400"
         font-size="24px"
         transform="rotate(-90,510.196,42.804)"
         id="text22">Airflow</text>
      <path
         d="m 1560,370.333 c 0,-1.841 1.49,-3.333 3.33,-3.333 h 13.34 c 1.84,0 3.33,1.492 3.33,3.333 v 13.334 c 0,1.841 -1.49,3.333 -3.33,3.333 h -13.34 c -1.84,0 -3.33,-1.492 -3.33,-3.333 z"
         stroke="#507e32"
         stroke-width="2"
         stroke-miterlimit="8"
         fill="#70ad47"
         fill-rule="evenodd"
         id="path22" />
      <path
         d="m 1560,403.167 c 0,-1.749 1.42,-3.167 3.17,-3.167 h 13.66 c 1.75,0 3.17,1.418 3.17,3.167 v 12.666 c 0,1.749 -1.42,3.167 -3.17,3.167 h -13.66 c -1.75,0 -3.17,-1.418 -3.17,-3.167 z"
         stroke="#2e75b6"
         stroke-width="2"
         stroke-miterlimit="8"
         fill="#5b9bd5"
         fill-rule="evenodd"
         id="path23" />
      <path
         d="m 1561,435.167 c 0,-1.749 1.42,-3.167 3.17,-3.167 h 12.66 c 1.75,0 3.17,1.418 3.17,3.167 v 13.666 c 0,1.749 -1.42,3.167 -3.17,3.167 h -12.66 c -1.75,0 -3.17,-1.418 -3.17,-3.167 z"
         stroke="#2f528f"
         stroke-width="2"
         stroke-miterlimit="8"
         fill="#4472c4"
         fill-rule="evenodd"
         id="path24" />
      <path
         d="m 1560,468.333 c 0,-1.841 1.49,-3.333 3.33,-3.333 h 13.34 c 1.84,0 3.33,1.492 3.33,3.333 v 13.334 c 0,1.841 -1.49,3.333 -3.33,3.333 h -13.34 c -1.84,0 -3.33,-1.492 -3.33,-3.333 z"
         stroke="#44546a"
         stroke-width="2"
         stroke-miterlimit="8"
         fill="#2f5597"
         fill-rule="evenodd"
         id="path25" />
      <path
         d="m 1560,501.333 c 0,-1.841 1.49,-3.333 3.33,-3.333 h 13.34 c 1.84,0 3.33,1.492 3.33,3.333 v 13.334 c 0,1.841 -1.49,3.333 -3.33,3.333 h -13.34 c -1.84,0 -3.33,-1.492 -3.33,-3.333 z"
         stroke="#bc8c00"
         stroke-width="2"
         stroke-miterlimit="8"
         fill="#ffc000"
         fill-rule="evenodd"
         id="path26" />
      <path
         d="m 1560,533.333 c 0,-1.841 1.49,-3.333 3.33,-3.333 h 13.34 c 1.84,0 3.33,1.492 3.33,3.333 v 13.334 c 0,1.841 -1.49,3.333 -3.33,3.333 h -13.34 c -1.84,0 -3.33,-1.492 -3.33,-3.333 z"
         stroke="#4a206a"
         stroke-width="2"
         stroke-miterlimit="8"
         fill="#7030a0"
         fill-rule="evenodd"
         id="path27" />
      <path
         d="m 836.11,417 97.761,0.301 7.129,2.856 c 0,8.921 0,17.842 0,26.763 l -5.771,3.458 h -38.018 l -4.073,9.622 -18.331,-0.15 -4.073,-9.472 h -33.606 l -6.689,-3.474 c -0.226,-9.772 -0.213,-17.275 -0.439,-27.047 z"
         stroke="#2f528f"
         stroke-width="2"
         stroke-miterlimit="8"
         fill="#4472c4"
         fill-rule="evenodd"
         id="path28" />
      <text
         fill="#ffffff"
         font-family="Arial, Arial_MSFontService, sans-serif"
         font-weight="400"
         font-size="20px"
         transform="translate(865.523,443)"
         id="text28">Hive</text>
    </g>
  </g>
</svg>
