<?xml version="1.0" encoding="UTF-8" standalone="no"?>
<svg
   xmlns:dc="http://purl.org/dc/elements/1.1/"
   xmlns:cc="http://creativecommons.org/ns#"
   xmlns:rdf="http://www.w3.org/1999/02/22-rdf-syntax-ns#"
   xmlns:svg="http://www.w3.org/2000/svg"
   xmlns="http://www.w3.org/2000/svg"
   xmlns:sodipodi="http://sodipodi.sourceforge.net/DTD/sodipodi-0.dtd"
   xmlns:inkscape="http://www.inkscape.org/namespaces/inkscape"
   sodipodi:docname="pre-dwh.svg"
   inkscape:version="1.0 (4035a4fb49, 2020-05-01)"
   id="svg8"
   version="1.1"
   viewBox="0 0 192.37093 91.273315"
   height="91.273315mm"
   width="192.37093mm">
  <defs
     id="defs2" />
  <sodipodi:namedview
     inkscape:window-maximized="0"
     inkscape:window-y="42"
     inkscape:window-x="32"
     inkscape:window-height="1208"
     inkscape:window-width="1541"
     showgrid="false"
     inkscape:document-rotation="0"
     inkscape:current-layer="layer1"
     inkscape:document-units="mm"
     inkscape:cy="215.34215"
     inkscape:cx="1223.5356"
     inkscape:zoom="0.35"
     inkscape:pageshadow="2"
     inkscape:pageopacity="0.0"
     borderopacity="1.0"
     bordercolor="#666666"
     pagecolor="#ffffff"
     id="base" />
  <metadata
     id="metadata5">
    <rdf:RDF>
      <cc:Work
         rdf:about="">
        <dc:format>image/svg+xml</dc:format>
        <dc:type
           rdf:resource="http://purl.org/dc/dcmitype/StillImage" />
        <dc:title></dc:title>
      </cc:Work>
    </rdf:RDF>
  </metadata>
  <g
     transform="translate(217.89379,-91.190723)"
     id="layer1"
     inkscape:groupmode="layer"
     inkscape:label="Layer 1">
    <g
       transform="matrix(0.26458333,0,0,0.26458333,-295.94677,14.462851)"
       id="g92">
      <path
         d="m 78.997,29.1556 c -0.1391,3.6782 -1.855,7.1203 -4.7144,9.4632 -3.9947,3.3651 -9.4695,6.2613 -17.1146,9.0763 2.6854,0.2899 5.3197,0.9412 7.8288,1.935 0,0 -2.8817,1.7116 -4.6677,8.7138 -1.133,4.4002 3.2025,15.4009 3.2385,23.1441 0,6.197 -1.7732,8.971 -5.1222,10.8543 -1.9336,1.0876 -6.3911,0.0843 -6.3911,0.0843 0,0 -2.3032,4.3358 -10.0088,6.7177 -6.335,1.7077 -13.0967,0.8537 -18.7944,-2.3819 -4.7655,-3.0595 -7.0686,-6.4205 -7.1801,-17.983 -0.0978,-10.5961 1.3676,-20.0076 0.6912,-24.4446 -0.3132,-2.4556 -1.254,-4.7911 -2.7353,-6.784 2.3446,-0.1939 4.6986,-0.2446 7.0495,-0.1497 C 13.84,44.6767 8.58932,41.8659 4.73163,38.6188 1.8584,36.2653 0.139311,32.8011 0.0107568,29.1051 L 0.0214082,6.88425 1.15541,6.13379 C 8.16348,1.49548 25.7878,0.396305 33.04,0.140155 L 36.3116,0.0168396 27.9571,38.3373 c 3.744,-1.1276 7.6388,-1.6819 11.5517,-1.6441 3.9106,-0.0378 7.8043,0.5165 11.5462,1.6441 L 42.692,0.00460212 45.9498,0.104384 C 53.424,0.33198 71.5048,1.38168 77.9915,6.21182 l 1.0194,0.75882 z m -54.7786,40.42 v 6.3983 c 0.6211,0.0369 1.2401,0.1117 1.8529,0.2213 4.2749,0.5585 8.4458,1.7242 12.3873,3.4589 4.431,2.2112 6.9708,3.2957 10.6469,6.6007 0.4863,0.4733 1.2668,0.4659 1.7425,-0.0158 0.1805,-0.1823 0.2994,-0.4173 0.3388,-0.6692 0.2929,-2.0098 1.0554,-6.4352 2.0694,-8.2005 0.4577,-0.8685 0.9726,-1.7043 1.5439,-2.5031 V 69.5756 C 54.7917,61.198 47.9513,54.4086 39.5098,54.3991 v 0 C 31.0682,54.4075 24.2279,61.198 24.2184,69.5756 Z M 39.5088,41.7521 c -4.3727,-0.1254 -8.7167,0.7271 -12.7112,2.4956 l 1.1042,0.4501 c 2.3934,0.9696 3.9554,3.283 3.9501,5.8481 v 0.2846 c 4.9035,-1.9877 10.3953,-1.9877 15.2978,0 v -0.2803 c -0.0065,-2.5673 1.5566,-4.8807 3.95,-5.8514 l 1.1106,-0.4521 c -3.9924,-1.7664 -8.3332,-2.619 -12.7015,-2.4946 z"
         fill-rule="evenodd"
         transform="matrix(1,0,0,-1,364,390)"
         id="path10" />
      <path
         d="M -0.0201361,27.7288 H 35.2165 v 9.2499 L 46.98,18.4788 35.2165,-0.0212565 V 9.22877 H -0.0201361 Z"
         fill="#4472c4"
         fill-rule="evenodd"
         transform="matrix(1,0,0,-1,492,364)"
         id="path12" />
      <path
         d="M -0.0201361,27.7288 H 35.2165 v 9.2499 L 46.98,18.4788 35.2165,-0.0212565 V 9.22877 H -0.0201361 Z"
         stroke="#000000"
         stroke-width="0.333333"
         stroke-miterlimit="8"
         fill="none"
         fill-rule="evenodd"
         transform="matrix(1,0,0,-1,492.5,364.5)"
         id="path14" />
      <path
         d="M 108.983,60.9922 V 26.6764 c 0,-14.7351 -12.071,-26.68430131 -26.9564,-26.68430131 H 34.6491 C 19.7503,-0.00790131 7.67917,11.9413 7.67917,26.6764 v 3.8158 H -0.0170142 L 15.3887,45.7421 30.7944,30.4922 h -7.7095 v -3.8158 c 0,-6.3113 5.1752,-11.4342 11.5642,-11.4342 h 47.3775 c 6.3755,0 11.5508,5.1229 11.5508,11.4342 v 34.3158 z"
         fill="#4472c4"
         fill-rule="evenodd"
         transform="matrix(1,0,0,-1,575,449)"
         id="path16" />
      <path
         d="M 108.983,60.9922 V 26.6764 c 0,-14.7351 -12.071,-26.68430131 -26.9564,-26.68430131 H 34.6491 C 19.7503,-0.00790131 7.67917,11.9413 7.67917,26.6764 v 3.8158 H -0.0170142 L 15.3887,45.7421 30.7944,30.4922 h -7.7095 v -3.8158 c 0,-6.3113 5.1752,-11.4342 11.5642,-11.4342 h 47.3775 c 6.3755,0 11.5508,5.1229 11.5508,11.4342 v 34.3158 z"
         stroke="#2f528f"
         stroke-width="1.33333"
         stroke-miterlimit="8"
         fill="none"
         fill-rule="evenodd"
         transform="matrix(1,0,0,-1,575.5,449.5)"
         id="path18" />
      <path
         d="M 71.0591,55.0114 54.2972,72.01 40.329,57.8435 37.5354,60.6774 1.21628,23.8473 c -1.542458,-1.5642 -1.543296,-4.1008 0,-5.666 0,0 0,0 0,0 L 17.979,1.18371 c 1.5434,-1.565132 4.0448,-1.565132 5.5882,0 0,0 0,0 0,0 L 59.8846,38.0128 57.0917,40.8459 Z M 54.2972,66.344 65.4735,55.0114 54.2981,43.6788 43.1218,55.0114 Z"
         fill-rule="evenodd"
         transform="matrix(1,0,0,-1,830,425)"
         id="path20" />
      <path
         d="m 0.054197,2.50647 2.500003,2.5 2.50009,-2.5 L 2.5542,0.00647304 Z"
         fill-rule="evenodd"
         transform="matrix(1,0,0,-1,879,370)"
         id="path22" />
      <path
         d="m 0.065599,3.00799 3.000001,3.00056 3,-3.00056 -3,-2.99954817 z"
         fill-rule="evenodd"
         transform="matrix(1,0,0,-1,884,376)"
         id="path24" />
      <path
         d="m 55.0639,8.01359 c 0,-4.41931 -12.3121,-8.0017007 -27.5001,-8.0017007 -15.1881,0 -27.5000382,3.5823907 -27.5000382,8.0017007 0,4.41921 12.3119382,7.99831 27.5000382,7.99831 15.188,0 27.5001,-3.5791 27.5001,-7.99831 z"
         fill-rule="evenodd"
         transform="matrix(1,0,0,-1,886,419)"
         id="path26" />
      <path
         d="m 47.2067,8.0138 c -1.1786,0 -1.9643,0.79991 -1.9643,1.9999 0,1.2001 0.7857,2.0001 1.9643,2.0001 1.1785,0 1.9643,-0.8 1.9643,-2.0001 0,-1.19999 -0.7858,-1.9999 -1.9643,-1.9999 z m -19.6429,8 c -15.125,0 -27.5000382,3.6 -27.5000382,8 v -16 c 0,-4.40001 12.3750382,-8.000109 27.5000382,-8.000109 15.1251,0 27.5001,3.600099 27.5001,8.000109 v 16 c 0,-4.4 -12.375,-8 -27.5001,-8 z"
         fill-rule="evenodd"
         transform="matrix(1,0,0,-1,886,439)"
         id="path28" />
      <path
         d="m 47.2067,8.01613 c -1.1786,0 -1.9643,0.80002 -1.9643,1.99997 0,1.2 0.7857,2 1.9643,2 1.1785,0 1.9643,-0.8 1.9643,-2 0,-1.19995 -0.7858,-1.99997 -1.9643,-1.99997 z M 27.5638,16.0161 c -15.125,0 -27.5000382,3.6 -27.5000382,8 V 8.01613 c 0,-4.40001 12.3750382,-7.999998 27.5000382,-7.999998 15.1251,0 27.5001,3.599988 27.5001,7.999998 V 24.0161 c 0,-4.4 -12.375,-8 -27.5001,-8 z"
         fill-rule="evenodd"
         transform="matrix(1,0,0,-1,886,459)"
         id="path30" />
      <path
         d="m 47.2067,8.01847 c -1.1786,0 -1.9643,0.80002 -1.9643,1.99993 0,1.2 0.7857,2.0001 1.9643,2.0001 1.1785,0 1.9643,-0.8001 1.9643,-2.0001 0,-1.19991 -0.7858,-1.99993 -1.9643,-1.99993 z M 27.5638,16.0185 c -15.125,0 -27.5000382,3.6 -27.5000382,8 V 8.01847 c 0,-4.40001 12.3750382,-8.0000031 27.5000382,-8.0000031 15.1251,0 27.5001,3.5999931 27.5001,8.0000031 V 24.0185 c 0,-4.4 -12.375,-8 -27.5001,-8 z"
         fill-rule="evenodd"
         transform="matrix(1,0,0,-1,886,479)"
         id="path32" />
      <path
         d="M 35.8444,76.01 C 15.9705,75.01 0.0714686,58.2126 0.0714686,38.0117 0.0714686,17.0108 16.9642,0.00997682 37.8317,0.00997682 c 9.44,0 18.2839,3.40018318 25.2398,9.80042318 L 35.8444,37.2116 Z"
         fill-rule="evenodd"
         transform="matrix(1,0,0,-1,947,428)"
         id="path34" />
      <path
         d="M 0.0744648,36.0077 V 0.00764221 H 36.0746 C 35.0717,19.5095 19.529,35.0077 0.0744648,36.0077 Z"
         fill-rule="evenodd"
         transform="matrix(1,0,0,-1,986,388)"
         id="path36" />
      <path
         d="M 0.0742452,23.0115 23.4042,0.0113706 C 29.2865,6.40032 32.6754,14.4602 33.0742,23.0115 Z"
         fill-rule="evenodd"
         transform="matrix(1,0,0,-1,989,415)"
         id="path38" />
      <path
         d="M 11.4076,43.9814 39.2698,22.4262 44.9868,29.9078 42.858,7.75954 22.1455,-0.0186816 27.849,7.46297 -0.0131781,29.0181 Z"
         fill="#4472c4"
         fill-rule="evenodd"
         transform="matrix(1,0,0,-1,751,383)"
         id="path40" />
      <path
         d="M 11.4076,43.9814 39.2698,22.4262 44.9868,29.9078 42.858,7.75954 22.1455,-0.0186816 27.849,7.46297 -0.0131781,29.0181 Z"
         stroke="#000000"
         stroke-width="0.333333"
         stroke-miterlimit="8"
         fill="none"
         fill-rule="evenodd"
         transform="matrix(1,0,0,-1,751.5,383.5)"
         id="path42" />
      <path
         d="M 7.04784,45.2627 12.2054,30.3649 c -3.23091,-2.0855 -4.13131,-6.3525 -2.0116,-9.5311 2.1199,-3.1787 6.457,-4.0646 9.6879,-1.9791 1.9723,1.2727 3.1593,3.4377 3.1585,5.7576 -0.0043,0.8859 -0.1767,1.7635 -0.5098,2.5862 l 10.345,7.621 c 1.2027,-0.8784 2.6604,-1.3537 4.1579,-1.357 h 0.1 l 6.7268,-21.0339 c -3.0969,-2.2732 -3.7333,-6.58678 -1.4227,-9.63361 2.3114,-3.045883 6.6951,-3.672802 9.792,-1.39963 3.0967,2.274 3.734,6.58687 1.4225,9.63364 -1.3243,1.7462 -3.4099,2.7722 -5.6239,2.7665 h -0.4098 l -6.6667,20.847 c 3.2042,2.1257 4.0505,6.4032 1.8899,9.5558 -2.1599,3.1524 -6.5085,3.9849 -9.712,1.8593 -2.6737,-1.7733 -3.769,-5.1151 -2.6529,-8.0914 L 20.0416,30.2666 c -1.1736,0.8023 -2.5688,1.2308 -3.9981,1.2292 v 0 l -5.1775,14.888 c 3.2351,2.0797 4.1439,6.345 2.0307,9.5277 -2.114,3.1804 -6.44941,4.0736 -9.68445,1.9972 -3.2351522,-2.0791 -4.143819,-6.3452 -2.02982,-9.5271 1.29345,-1.9487 3.49991,-3.1213 5.86541,-3.1189 z"
         fill-rule="evenodd"
         transform="matrix(1,0,0,-1,668,600)"
         id="path44" />
      <path
         d="M 62.1293,5.94381 H 0.0416086 V 0.0291891 H 68.0416 V 69.0293 h -5.9123 z"
         fill-rule="evenodd"
         transform="matrix(1,0,0,-1,665,610)"
         id="path46" />
      <path
         d="m 61.1385,67.0301 h 5.9118 V 0.0300119 H 0.0501697 V 5.94183 H 61.1385 Z"
         fill-rule="evenodd"
         transform="matrix(1,0,0,-1,748,617)"
         id="path48" />
      <path
         d="M 0.0524037,0.0309904 H 11.0525 V 35.0311 H 0.0524037 Z"
         fill-rule="evenodd"
         transform="matrix(1,0,0,-1,792,605)"
         id="path50" />
      <path
         d="M 0.0510246,0.0292905 H 11.0511 V 55.0293 H 0.0510246 Z"
         fill-rule="evenodd"
         transform="matrix(1,0,0,-1,777,605)"
         id="path52" />
      <path
         d="M 0.0451324,0.0309904 H 10.0451 V 35.0311 H 0.0451324 Z"
         fill-rule="evenodd"
         transform="matrix(1,0,0,-1,763,605)"
         id="path54" />
      <path
         d="M 0.0482665,0.0320519 H 11.0483 V 18.0322 H 0.0482665 Z"
         fill-rule="evenodd"
         transform="matrix(1,0,0,-1,748,605)"
         id="path56" />
      <path
         d="M 43.9891,32.9994 21.5349,6.00731 28.7213,0.00917195 6.86816,3.00819 -0.0110438,24.0154 7.17539,18.0172 29.6297,45.0092 Z"
         fill="#4472c4"
         fill-rule="evenodd"
         transform="matrix(1,0,0,-1,835,534)"
         id="path58" />
      <path
         d="M 43.9891,32.9994 21.5349,6.00731 28.7213,0.00917195 6.86816,3.00819 -0.0110438,24.0154 7.17539,18.0172 29.6297,45.0092 Z"
         stroke="#000000"
         stroke-width="0.333333"
         stroke-miterlimit="8"
         fill="none"
         fill-rule="evenodd"
         transform="matrix(1,0,0,-1,835.5,534.5)"
         id="path60" />
      <path
         d="M 48.0186,0.0348728 V 12.0695 c 0.0496,1.9086 -0.8554,3.7155 -2.4103,4.8166 -3.4608,2.693 -7.471,4.5888 -11.7467,5.5523 -3.208,0.9659 -6.5279,1.5026 -9.8767,1.5964 -3.3326,0.0081 -6.6468,-0.5067 -9.8213,-1.527 C 9.9502,21.3731 5.97228,19.4922 2.41693,16.9556 0.916266,15.8104 0.030896,14.0302 0.0204923,12.1389 V 0.0348728 Z"
         fill-rule="evenodd"
         transform="matrix(1,0,0,-1,470,635)"
         id="path62" />
      <path
         d="m 24.0206,12.0316 c 0,-6.62748 -5.3727,-11.9999792 -12.0001,-11.9999792 -6.62749,0 -12.0000246,5.3724992 -12.0000246,11.9999792 0,6.6274 5.3725346,12 12.0000246,12 6.6274,0 12.0001,-5.3726 12.0001,-12 z"
         fill-rule="evenodd"
         transform="matrix(1,0,0,-1,482,607)"
         id="path64" />
      <path
         d="M 60.6647,66.0278 H 3.38321 C 1.51915,66.0161 0.0174458,64.4859 0.0244241,62.617 V 17.5907 C 0.00116305,15.7253 1.4867,14.1939 3.34144,14.1717 c 0.00465,0 0.00931,-0.0012 0.01396,-0.0012 H 13.9475 V 0.0276608 L 26.7278,14.1705 H 60.595 c 1.8629,0.0082 3.3669,1.5325 3.3588,3.4061 0,0.0047 0,0.0094 0,0.0141 l 0.0697,44.9796 c 0.0384,1.8689 -1.4402,3.4225 -3.3019,3.4575 -0.0186,0 -0.0384,0 -0.0569,0 z m -19.512,-13.1571 2.1603,2.1727 c 0.3786,0.3059 0.9314,0.244 1.2346,-0.1368 0.2544,-0.32 0.2567,-0.7732 0.0058,-1.0967 l -2.1602,-2.1727 c -0.1626,-0.1623 -0.3833,-0.2534 -0.6133,-0.2522 -0.2334,0.0011 -0.4576,0.0922 -0.6272,0.2522 -0.2857,0.3458 -0.2682,0.8539 0.0419,1.1774 z m -9.9929,6.7281 c -0.0604,0.4847 0.28,0.9273 0.7607,0.9858 0.4809,0.0584 0.9211,-0.2792 0.9814,-0.7639 0.0093,-0.0736 0.0093,-0.1471 0,-0.2219 v -3.0557 c 0.0617,-0.4835 -0.2787,-0.9251 -0.7607,-0.987 -0.4808,-0.0607 -0.9198,0.2815 -0.9814,0.7651 -0.0092,0.0736 -0.0092,0.1483 0,0.2219 z M 19.5363,55.2115 c 0.3252,0.3411 0.8641,0.3516 1.2022,0.0245 0.008,-0.007 0.0161,-0.0152 0.0243,-0.0245 l 2.1603,-2.1726 c 0.3332,-0.3422 0.3332,-0.89 0,-1.2335 -0.1626,-0.1623 -0.3833,-0.2534 -0.6133,-0.2522 -0.2334,0.0012 -0.4576,0.0922 -0.6272,0.2522 l -2.1463,2.1726 c -0.2997,0.3411 -0.2811,0.8597 0.0418,1.1775 z M 18.4771,42.204 h -2.9965 c -0.4807,0.0619 -0.8211,0.5034 -0.7607,0.987 0.0512,0.4007 0.3635,0.7148 0.7607,0.7651 h 2.9965 c 0.4808,0.0619 0.921,-0.2804 0.9814,-0.7651 0.0616,-0.4836 -0.2787,-0.9251 -0.7607,-0.987 -0.0731,-0.0094 -0.1476,-0.0094 -0.2207,0 z m 4.432,-8.9707 -2.1603,-2.1726 c -0.3821,-0.3002 -0.9337,-0.2324 -1.2322,0.1518 -0.2509,0.3224 -0.2486,0.7768 0.0058,1.0957 l 2.1463,2.1585 c 0.3786,0.3061 0.9315,0.2442 1.2346,-0.1366 0.2543,-0.32 0.2566,-0.7732 0.0058,-1.0968 z m 9.0869,-9.9519 c -1.4413,-0.0058 -2.6503,1.0944 -2.7874,2.5371 h 5.4494 c -0.1312,-1.3958 -1.2682,-2.4798 -2.662,-2.5371 z m 3.4007,4.2892 h -6.8152 c -0.6922,0 -1.2544,0.5653 -1.2544,1.2614 0,0.6974 0.5622,1.2615 1.2544,1.2615 h 6.8152 c 0.6934,0 1.2544,-0.5641 1.2544,-1.2615 0,-0.6961 -0.561,-1.2614 -1.2544,-1.2614 z m 1.6585,4.3592 c -0.022,-0.0503 -0.0708,-0.083 -0.1254,-0.0842 h -9.8814 c -0.0395,-0.0163 -0.0848,-0.0163 -0.1254,0 -0.7038,1.5478 -1.5935,3.002 -2.648,4.3312 -0.7538,0.8539 -1.3484,1.8362 -1.7561,2.9015 -0.4402,1.1272 -0.6853,2.3221 -0.7247,3.5322 v 0.4345 c 0.209,5.6628 4.9418,10.0839 10.5723,9.8748 5.338,-0.1986 9.6201,-4.5052 9.8175,-9.8748 v -0.3644 c -0.0394,-1.2137 -0.2798,-2.412 -0.7107,-3.5462 -0.4135,-1.0618 -1.007,-2.0442 -1.7561,-2.9015 -1.0546,-1.3222 -1.9477,-2.7672 -2.662,-4.3031 z m 7.5399,-0.6729 c -0.1625,-0.1624 -0.3831,-0.2534 -0.6131,-0.2523 -0.2335,0.0012 -0.4576,0.0923 -0.6272,0.2523 l -2.1602,2.1726 c -0.2986,0.3843 -0.2311,0.9391 0.1498,1.2405 0.3217,0.2523 0.7734,0.2499 1.0905,-0.007 l 2.1602,-2.1586 c 0.3346,-0.3469 0.3346,-0.8994 0,-1.2475 z m 3.9025,10.9471 h -3.0383 c -0.4809,-0.0608 -0.9199,0.2815 -0.9814,0.7651 -0.0604,0.4847 0.2799,0.9262 0.7607,0.987 0.0732,0.0093 0.1475,0.0093 0.2207,0 h 3.0383 c 0.4808,0.0619 0.921,-0.2804 0.9814,-0.7651 0.0615,-0.4836 -0.2787,-0.9251 -0.7607,-0.987 -0.0732,-0.0094 -0.1475,-0.0094 -0.2207,0 z"
         fill-rule="evenodd"
         transform="matrix(1,0,0,-1,499,591)"
         id="path66" />
      <path
         d="M 46.9826,9.52196 H 11.746 V 0.021938 L -0.0174866,19.022 11.746,38.022 v -9.5 h 35.2366 z"
         fill="#4472c4"
         fill-rule="evenodd"
         transform="matrix(1,0,0,-1,593,598)"
         id="path68" />
      <path
         d="M 46.9826,9.52196 H 11.746 V 0.021938 L -0.0174866,19.022 11.746,38.022 v -9.5 h 35.2366 z"
         stroke="#000000"
         stroke-width="0.333333"
         stroke-miterlimit="8"
         fill="none"
         fill-rule="evenodd"
         transform="matrix(1,0,0,-1,593.5,598.5)"
         id="path70" />
      <path
         d="M 14.0389,7.0009 C 14.0389,3.13567 10.9061,8.49057e-4 7.03946,8.49057e-4 3.17399,8.49057e-4 0.0388288,3.13567 0.0388288,7.0009 c 0,3.8663 3.1351612,7.0001 7.0006312,7.0001 3.86664,0 6.99944,-3.1338 6.99944,-7.0001 z"
         fill-rule="evenodd"
         transform="matrix(1,0,0,-1,664,314)"
         id="path72" />
      <path
         d="M 14.0309,7.0009 C 14.0309,3.13567 10.8971,8.49057e-4 7.03082,8.49057e-4 3.16566,8.49057e-4 0.0307634,3.13567 0.0307634,7.0009 c 0,3.8663 3.1348966,7.0001 7.0000566,7.0001 3.86628,0 7.00008,-3.1338 7.00008,-7.0001 z"
         fill-rule="evenodd"
         transform="matrix(1,0,0,-1,581,314)"
         id="path74" />
      <path
         d="M 13.0337,7.0009 C 13.0337,3.13567 10.1238,8.49057e-4 6.53364,8.49057e-4 2.94457,8.49057e-4 0.0335897,3.13567 0.0335897,7.0009 c 0,3.8663 2.9109803,7.0001 6.5000503,7.0001 3.59016,0 6.50006,-3.1338 6.50006,-7.0001 z"
         fill-rule="evenodd"
         transform="matrix(1,0,0,-1,637,314)"
         id="path76" />
      <path
         d="M 14.0335,7.0009 C 14.0335,3.13567 10.8999,8.49057e-4 7.03347,8.49057e-4 3.16831,8.49057e-4 0.0335215,3.13567 0.0335215,7.0009 c 0,3.8663 3.1347885,7.0001 6.9999485,7.0001 3.86643,0 7.00003,-3.1338 7.00003,-7.0001 z"
         fill-rule="evenodd"
         transform="matrix(1,0,0,-1,609,314)"
         id="path78" />
      <path
         d="m 116.974,36.5165 -4.462,20.1155 c -0.14,0.5511 -0.418,1.1023 -0.976,1.5156 -1.673,1.24 -3.486,2.3422 -5.576,2.8933 -1.813,0.5511 -3.625,0.9644 -5.578,0.9644 -1.9515,0 -3.9036,-0.2755 -5.5768,-0.9644 -2.0914,-0.6889 -3.904,-1.6533 -5.5772,-2.8933 -0.5577,-0.4133 -0.8367,-0.9645 -0.976,-1.5156 l -1.8126,-8.1289 v 0 l -1.8127,8.1289 c -0.1394,0.5511 -0.4182,1.1023 -0.976,1.5156 -1.6731,1.24 -3.4858,2.3422 -5.5773,2.8933 -1.8125,0.5511 -3.6252,0.9644 -5.5773,0.9644 -1.9519,0 -3.904,-0.2755 -5.5772,-0.9644 C 64.8275,60.352 63.0148,59.3876 61.3417,58.1476 60.7839,57.7343 60.505,57.1831 60.3656,56.632 l -1.8127,-7.9911 v -0.1378 l -1.8125,8.1289 c -0.1395,0.5511 -0.4184,1.1023 -0.9761,1.5156 -1.6732,1.24 -3.4858,2.3422 -5.5772,2.8933 -1.8127,0.5511 -3.6253,0.9644 -5.5773,0.9644 -1.9521,0 -3.9041,-0.2755 -5.5772,-0.9644 -2.0916,-0.6889 -3.9042,-1.6533 -5.5774,-2.8933 -0.5577,-0.4133 -0.8365,-0.9645 -0.976,-1.5156 l -1.8126,-7.9911 v 0 L 28.854,56.632 c -0.1394,0.5511 -0.4183,1.1023 -0.976,1.5156 -1.6732,1.24 -3.4858,2.3422 -5.5773,2.8933 -1.8126,0.5511 -3.6252,0.9644 -5.5772,0.9644 -1.9521,0 -3.9042,-0.2755 -5.5774,-0.9644 C 9.0547,60.352 7.24207,59.3876 5.5689,58.1476 5.01117,57.7343 4.73236,57.1831 4.59291,56.632 L 0.131322,36.6542 c -0.418266,-1.5156 0.557725,-3.1689 2.230688,-3.4444 0.13935,0 0.27881,0 0.41827,0 1.2549,0 2.37035,0.8267 2.78862,2.2044 L 9.75188,53.7387 V 43.9565 L 5.5689,23.4276 H 9.75188 V 0.0053268 H 15.3291 V 23.4276 h 2.7887 V 0.0053268 H 23.695 V 23.4276 h 4.183 l -4.183,20.5289 v 9.7822 l 4.183,-18.4622 c 0.2789,-1.24 1.3943,-2.2045 2.6491,-2.2045 v 0 c 1.2549,0 2.3704,0.8266 2.6493,2.2045 l 4.4618,18.4622 V 31.6943 0.0053268 h 5.5773 V 31.6943 h 2.7886 V 0.0053268 h 5.5773 V 31.6943 53.7387 l 4.1829,-18.4622 c 0.2789,-1.24 1.3944,-2.2045 2.7886,-2.2045 0,0 0,0 0,0 v 0 c 1.2549,0 2.3704,0.8266 2.6493,2.2045 l 4.3223,18.4622 v -9.92 L 61.3417,23.4276 h 4.1828 V 0.0053268 h 5.5774 V 23.4276 h 2.7886 V 0.0053268 h 5.5773 V 23.4276 h 4.1829 l -4.1829,20.6666 v 9.6445 l 4.1829,-18.4622 c 0.2789,-1.24 1.3943,-2.2045 2.7887,-2.2045 0,0 0,0 0,0 v 0 c 0,0 0,0 0,0 1.2549,0 2.3703,0.8266 2.7886,2.2045 l 4.183,18.4622 V 31.6943 0.0053268 h 5.5772 V 31.6943 h 2.7888 V 0.0053268 h 5.576 V 31.6943 53.7387 l 4.183,-18.4622 c 0.279,-1.24 1.394,-2.2045 2.789,-2.2045 0.278,0 0.697,0 0.976,0.1378 1.254,0.551 1.952,1.9288 1.673,3.3067 z"
         fill-rule="evenodd"
         transform="matrix(1,0,0,-1,571,377)"
         id="path80" />
      <path
         d="m 6.0035,3.03168 c 0,-1.65673 -1.34342,-3.0000525 -3.00011,-3.0000525 -1.65668,0 -2.99999537,1.3433225 -2.99999537,3.0000525 0,1.65748 1.34331537,2.99995 2.99999537,2.99995 1.65669,0 3.00011,-1.34247 3.00011,-2.99995 z"
         fill-rule="evenodd"
         transform="matrix(1,0,0,-1,330,595)"
         id="path82" />
      <path
         d="m 44.0019,21.0326 c 0,-3.3134 -2.6857,-6.0001 -5.9998,-6.0001 -3.3132,0 -5.9998,2.6867 -5.9998,6.0001 v 8 H 0.00339446 V 0.0324763 H 76.0035 V 29.0326 H 44.0019 Z M 4.00323,4.03248 V 11.8325 C 7.92733,11.0234 10.9931,7.95671 11.8022,4.03248 Z M 72.0011,11.8325 V 4.03248 H 64.203 c 0.8083,3.92423 3.8749,6.99092 7.7981,7.80002 z"
         fill-rule="evenodd"
         transform="matrix(1,0,0,-1,295,614)"
         id="path84" />
      <path
         d="M 76.0035,25.764 V 26.3 l -1.9917,4.8377 c -1.2166,2.955 -4.1557,4.8897 -7.4264,4.8897 H 9.41973 c -3.27152,0 -6.21313,-1.9347 -7.42814,-4.8897 L 0.00424307,26.3025 V 23.2284 L 5.11322,11.6295 0.00339446,0.0273672 H 24.4859 C 25.5925,0.40204 26.6634,0.869865 27.6858,1.42619 28.0808,1.22099 28.4907,1.04502 28.9124,0.898265 28.7733,0.817196 28.645,0.734475 28.5008,0.654955 28.08,0.423934 27.6675,0.218731 27.2616,0.0273672 H 76.0035 L 70.8911,11.6295 76.0035,23.2332 Z M 19.4928,1.41566 C 18.3603,1.09046 17.1978,0.87317 16.0221,0.76525 12.7379,0.442523 10.0022,0.886905 9.91139,1.75863 L 9.86302,2.22077 C 11.8305,1.68479 13.8896,1.54775 15.9129,1.8178 17.1611,1.93378 18.3962,2.1584 19.6028,2.49083 19.4777,2.14621 19.4403,1.77722 19.4928,1.41566 Z M 15.7487,3.39581 C 12.4647,3.07226 9.72894,3.51664 9.63803,4.38836 9.54723,5.25998 12.1364,6.22899 15.4204,6.55254 15.4895,6.55905 15.5546,6.56225 15.6229,6.56793 16.8853,5.77087 18.2395,5.12056 19.6577,4.63157 19.8427,4.56589 20.0511,4.49453 20.2752,4.42079 18.8278,3.86209 17.302,3.51664 15.7487,3.39581 Z m 6.0748,6.70349 1.2042,-2.06934 c -0.5975,0.15253 -1.2275,0.34307 -1.8742,0.57337 -3.0999,1.10522 -5.3614,2.66777 -5.0515,3.48997 0.2892,0.7671 2.7133,0.6187 5.554,-0.3008 -0.1925,-0.5619 -0.1316,-1.1774 0.1675,-1.6932 z M 20.5927,7.11373 c 0.9217,-0.32924 1.8641,-0.60012 2.8224,-0.80925 -0.375,-0.23928 -0.7675,-0.50769 -1.155,-0.79551 -0.6908,0.16947 -1.3724,0.37385 -2.0415,0.6122 -3.0991,1.1044 -5.3607,2.66702 -5.0515,3.4901 l 0.1649,0.43623 c 1.5284,-1.31766 3.3191,-2.31672 5.2607,-2.93377 z m 18.5669,4.47197 c -3.2658,-0.4687 -6.0198,-0.1467 -6.1515,0.7201 -0.1316,0.8668 2.4091,1.9493 5.6748,2.4188 3.2658,0.4688 6.0199,0.1469 6.1515,-0.72 0.1309,-0.8661 -2.4098,-1.9494 -5.6748,-2.4189 z m 6.0015,0.2644 0.0699,-0.4606 C 45.3628,10.5227 42.822,9.44015 39.5563,8.97067 36.2906,8.50192 33.5365,8.82382 33.4049,9.69069 l -0.0693,0.45981 c 1.99,-0.44763 4.0533,-0.49307 6.0615,-0.1339 2.0299,0.2206 3.9916,0.845 5.764,1.8335 z m -15.9145,0.5165 c -2.8724,-1.5829 -5.5606,-2.2477 -6.004,-1.4855 -0.4441,0.7622 1.525,2.6629 4.3974,4.2466 2.8724,1.5828 5.5607,2.2477 6.004,1.4856 0.4441,-0.7623 -1.525,-2.6639 -4.3974,-4.2467 z m 2.3608,-1.6875 c -0.3276,-0.2067 -0.66,-0.4135 -1.0216,-0.613 C 27.7133,8.48333 25.0251,7.81835 24.581,8.58061 l -0.2351,0.40462 c 2.0216,0.27977 3.9632,0.96085 5.704,2.00117 0.3875,0.2133 0.8724,0.4979 1.385,0.8272 z M 21.1577,1.46998 c -0.4433,0.76215 1.5249,2.66371 4.3974,4.24657 0.1766,0.09728 0.3491,0.17918 0.5232,0.26923 L 25.8284,4.09311 C 25.7534,3.52469 25.9217,2.95143 26.2951,2.50787 23.7676,1.2591 21.556,0.785595 21.1577,1.46998 Z M 39.3012,2.40811 C 39.1871,1.53886 36.4397,1.16667 33.1657,1.57615 29.8916,1.98562 27.3299,3.02196 27.445,3.89121 l 0.0608,0.46059 c 1.7908,-0.95516 3.7641,-1.5431 5.7982,-1.72713 2.0158,-0.32272 4.0774,-0.23928 6.0581,0.24486 z m -5.7897,1.79044 c -3.2741,0.40947 -5.8349,1.44581 -5.7198,2.31423 0.115,0.86935 2.8615,1.24155 6.1356,0.83207 3.274,-0.40958 5.8356,-1.44582 5.7206,-2.31516 C 39.5329,4.16127 36.7855,3.78907 33.5115,4.19855 Z M 42.587,2.2216 c -0.5691,0.07136 -1.1157,0.16224 -1.6316,0.26758 l 0.1383,1.04605 C 41.7079,3.41522 42.277,3.32682 42.7261,3.27095 44.0994,3.0893 45.4877,3.04788 46.8694,3.1493 46.8893,2.8371 46.9818,2.53297 47.1411,2.26053 L 47.1694,2.21107 C 45.6494,1.99863 44.1061,2.00184 42.587,2.2216 Z m 4.7865,2.58915 C 45.8994,4.62351 44.4052,4.63487 42.9336,4.844 42.3512,4.91701 41.7946,5.0111 41.2688,5.11974 41.1821,6.10816 40.5513,6.97338 39.6204,7.378 c 0.0567,0.00816 0.12,0.01621 0.1742,0.02355 1.0292,0.14592 2.0467,0.36166 3.0449,0.64545 0.1691,-0.01704 0.3383,-0.0348 0.5099,-0.0567 2.49,-0.31147 4.5641,-0.98522 5.3657,-1.67291 C 48.2001,5.87631 47.7493,5.36945 47.3735,4.81075 Z M 46.5943,10.3069 C 47.4936,9.92016 48.4168,9.59175 49.3601,9.32335 51.2984,8.69576 53.3484,8.46216 55.3825,8.63731 L 55.2483,8.19137 c -0.2542,-0.84094 -3.0274,-0.78817 -6.194,0.11681 -1.085,0.30321 -2.1399,0.70132 -3.1507,1.18949 0.2783,0.2271 0.5124,0.50118 0.6907,0.80923 z m -0.2483,4.2945 c 1.4908,-0.0398 2.9691,-0.2789 4.3924,-0.7128 3.1674,-0.905 5.529,-2.3207 5.2757,-3.1607 -0.2542,-0.841 -3.0275,-0.78822 -6.1948,0.1167 -1.0417,0.2927 -2.0558,0.6722 -3.0299,1.1344 l -0.3425,2.2575 c -0.0225,0.1241 -0.0558,0.2466 -0.1009,0.3649 z M 48.5593,3.0422 c -0.3441,0.59196 0.7759,1.87079 2.635,3.15436 2.3298,-0.3819 5.0381,-0.37219 5.6181,1.54723 l 0.37,1.2276 c 0.92,0.19064 1.5799,0.1452 1.7791,-0.19704 C 59.4048,8.0122 57.4357,6.11064 54.5633,4.52778 51.6909,2.94492 49.0026,2.28005 48.5593,3.0422 Z M 49.8984,0.741807 49.6626,1.14643 c 2.0225,0.27976 3.9633,0.96085 5.704,2.00122 1.8117,0.91716 3.4108,2.187 4.6982,3.73092 l 0.235,-0.40462 C 60.7439,5.71087 58.7748,3.81014 55.9025,2.22728 53.03,0.644421 50.3417,-0.020448 49.8984,0.741807 Z M 61.9564,6.58012 C 65.0913,6.84284 67.6495,6.40176 67.737,5.55927 67.8278,4.68754 65.2388,3.71936 61.9547,3.39581 61.3631,3.33736 60.7981,3.31144 60.254,3.3009 c 1.0999,1.00309 1.9057,2.15458 1.7024,3.27922 z m 0.2717,-5.81487 c -1.7308,-0.232673 -3.4916,-0.14107 -5.1874,0.27006 0.3609,0.20675 0.7741,0.45657 1.2074,0.73871 1.2884,-0.10379 2.585,-0.08923 3.8708,0.04378 2.0383,0.12971 4.0273,0.6657 5.844,1.57398 L 68.0104,2.92953 C 68.1012,2.05781 65.5121,1.0888 62.2281,0.76525 Z M 72.0019,24.0319 67.4295,13.6503 H 55.5041 c -1.3541,0.7597 -2.8008,1.3509 -4.3066,1.7603 -1.494,0.4274 -4.3731,1.0956 -6.3231,0.6147 -1.8582,0.776 -4.8682,0.493 -6.4297,0.2684 -0.8275,-0.1184 -1.6492,-0.2806 -2.4591,-0.4849 l -0.9226,1.5861 c -1.4499,2.4911 -6.2356,0.2093 -8.2263,-0.8871 -1.45,-0.7719 -2.7841,-1.7329 -3.9648,-2.8575 h -1.8917 c -1.8924,0.5084 -4.2648,0.8644 -5.5848,0 H 8.57472 L 4.00408,24.0279 V 26.3 H 72.0019 Z"
         fill-rule="evenodd"
         transform="matrix(1,0,0,-1,295,581)"
         id="path86" />
      <path
         d="M 46.9773,9.52196 H 11.7004 V 0.021938 L -0.0227076,19.022 11.7004,38.022 v -9.5 h 35.2769 z"
         fill="#4472c4"
         fill-rule="evenodd"
         transform="matrix(1,0,0,-1,391,598)"
         id="path88" />
      <path
         d="M 46.9773,9.52196 H 11.7004 V 0.021938 L -0.0227076,19.022 11.7004,38.022 v -9.5 h 35.2769 z"
         stroke="#000000"
         stroke-width="0.333333"
         stroke-miterlimit="8"
         fill="none"
         fill-rule="evenodd"
         transform="matrix(1,0,0,-1,391.5,598.5)"
         id="path90" />
    </g>
  </g>
</svg>
